<?xml version="1.0" encoding="UTF-8" standalone="no"?>
<!DOCTYPE svg PUBLIC "-//W3C//DTD SVG 1.1//EN"
 "http://www.w3.org/Graphics/SVG/1.1/DTD/svg11.dtd">
<!-- Generated by graphviz version 2.26.3 (20100126.1600)
 -->
<!-- Title: commonUtil.h Pages: 1 -->
<svg width="258pt" height="88pt"
 viewBox="0.00 0.00 258.00 88.00" xmlns="http://www.w3.org/2000/svg" xmlns:xlink="http://www.w3.org/1999/xlink">
<g id="graph1" class="graph" transform="scale(1 1) rotate(0) translate(4 84)">
<title>commonUtil.h</title>
<polygon fill="white" stroke="white" points="-4,5 -4,-84 255,-84 255,5 -4,5"/>
<!-- Node1 -->
<g id="node1" class="node"><title>Node1</title>
<polygon fill="#bfbfbf" stroke="black" points="101.5,-58.5 101.5,-79.5 178.5,-79.5 178.5,-58.5 101.5,-58.5"/>
<text text-anchor="middle" x="140" y="-66.5" font-family="Helvetica,sans-Serif" font-size="10.00">commonUtil.h</text>
</g>
<!-- Node2 -->
<g id="node3" class="node"><title>Node2</title>
<polygon fill="white" stroke="#bfbfbf" points="-0.5,-0.5 -0.5,-21.5 72.5,-21.5 72.5,-0.5 -0.5,-0.5"/>
<text text-anchor="middle" x="36" y="-8.5" font-family="Helvetica,sans-Serif" font-size="10.00">Eigen/Dense</text>
</g>
<!-- Node1&#45;&gt;Node2 -->
<g id="edge2" class="edge"><title>Node1&#45;&gt;Node2</title>
<path fill="none" stroke="midnightblue" d="M120.925,-58.3619C104.945,-49.4502 81.919,-36.6087 63.8733,-26.5447"/>
<polygon fill="midnightblue" stroke="midnightblue" points="65.3927,-23.3846 54.9543,-21.5707 61.9832,-29.4982 65.3927,-23.3846"/>
</g>
<!-- Node3 -->
<g id="node5" class="node"><title>Node3</title>
<polygon fill="white" stroke="#bfbfbf" points="89.5,-0.5 89.5,-21.5 130.5,-21.5 130.5,-0.5 89.5,-0.5"/>
<text text-anchor="middle" x="110" y="-8.5" font-family="Helvetica,sans-Serif" font-size="10.00">string</text>
</g>
<!-- Node1&#45;&gt;Node3 -->
<g id="edge4" class="edge"><title>Node1&#45;&gt;Node3</title>
<path fill="none" stroke="midnightblue" d="M134.498,-58.3619C130.48,-50.5949 124.919,-39.8426 120.11,-30.5458"/>
<polygon fill="midnightblue" stroke="midnightblue" points="123.171,-28.8448 115.468,-21.5707 116.953,-32.0608 123.171,-28.8448"/>
</g>
<!-- Node4 -->
<g id="node7" class="node"><title>Node4</title>
<polygon fill="white" stroke="#bfbfbf" points="148,-0.5 148,-21.5 192,-21.5 192,-0.5 148,-0.5"/>
<text text-anchor="middle" x="170" y="-8.5" font-family="Helvetica,sans-Serif" font-size="10.00">vector</text>
</g>
<!-- Node1&#45;&gt;Node4 -->
<g id="edge6" class="edge"><title>Node1&#45;&gt;Node4</title>
<path fill="none" stroke="midnightblue" d="M145.502,-58.3619C149.52,-50.5949 155.081,-39.8426 159.89,-30.5458"/>
<polygon fill="midnightblue" stroke="midnightblue" points="163.047,-32.0608 164.532,-21.5707 156.829,-28.8448 163.047,-32.0608"/>
</g>
<!-- Node5 -->
<g id="node9" class="node"><title>Node5</title>
<polygon fill="white" stroke="#bfbfbf" points="210,-0.5 210,-21.5 250,-21.5 250,-0.5 210,-0.5"/>
<text text-anchor="middle" x="230" y="-8.5" font-family="Helvetica,sans-Serif" font-size="10.00">utility</text>
</g>
<!-- Node1&#45;&gt;Node5 -->
<g id="edge8" class="edge"><title>Node1&#45;&gt;Node5</title>
<path fill="none" stroke="midnightblue" d="M156.507,-58.3619C170.082,-49.6138 189.533,-37.0786 205.015,-27.1015"/>
<polygon fill="midnightblue" stroke="midnightblue" points="207.088,-29.9297 213.597,-21.5707 203.296,-24.0457 207.088,-29.9297"/>
</g>
</g>
</svg>
