<?xml version="1.0" encoding="UTF-8" standalone="no"?>
<!DOCTYPE svg PUBLIC "-//W3C//DTD SVG 1.1//EN"
 "http://www.w3.org/Graphics/SVG/1.1/DTD/svg11.dtd">
<!-- Generated by graphviz version 2.26.3 (20100126.1600)
 -->
<!-- Title: boostUtil.cpp Pages: 1 -->
<!--zoomable 262 -->
<svg id="main" version="1.1" xmlns="http://www.w3.org/2000/svg" xmlns:xlink="http://www.w3.org/1999/xlink" xml:space="preserve" onload="init(evt)">
<style type="text/css"><![CDATA[
.edge:hover path { stroke: red; }
.edge:hover polygon { stroke: red; fill: red; }
]]></style>
<script type="text/javascript"><![CDATA[
var edges = document.getElementsByTagName('g');
if (edges && edges.length) {
  for (var i=0;i<edges.length;i++) {
    if (edges[i].id.substr(0,4)=='edge') {
      edges[i].setAttribute('class','edge');
    }
  }
}
]]></script>
        <defs>
                <circle id="rim" cx="0" cy="0" r="7"/>
                <circle id="rim2" cx="0" cy="0" r="3.5"/>
                <g id="zoomPlus">
                        <use xlink:href="#rim" fill="#404040">
                                <set attributeName="fill" to="#808080" begin="zoomplus.mouseover" end="zoomplus.mouseout"/>
                        </use>
                        <path d="M-4,0h8M0,-4v8" fill="none" stroke="white" stroke-width="1.5" pointer-events="none"/>
                </g>
                <g id="zoomMin">
                        <use xlink:href="#rim" fill="#404040">
                                <set attributeName="fill" to="#808080" begin="zoomminus.mouseover" end="zoomminus.mouseout"/>
                        </use>
                        <path d="M-4,0h8" fill="none" stroke="white" stroke-width="1.5" pointer-events="none"/>
                </g>
                <g id="dirArrow">
                        <path fill="none" stroke="white" stroke-width="1.5" d="M0,-3.0v7 M-2.5,-0.5L0,-3.0L2.5,-0.5"/>
                </g>
               <g id="resetDef">
                       <use xlink:href="#rim2" fill="#404040">
                               <set attributeName="fill" to="#808080" begin="reset.mouseover" end="reset.mouseout"/>
                       </use>
               </g>
        </defs>

<script type="text/javascript">
var viewWidth = 520;
var viewHeight = 262;
var sectionId = 'dynsection-0';
</script>
<script xlink:href="../../svgpan.js"/>
<svg id="graph" class="graph">
<g id="viewport">
<title>boostUtil.cpp</title>
<polygon fill="white" stroke="white" points="-4,5 -4,-258 517,-258 517,5 -4,5"/>
<!-- Node1 -->
<g id="node1" class="node"><title>Node1</title>
<polygon fill="#bfbfbf" stroke="black" points="203,-232.5 203,-253.5 277,-253.5 277,-232.5 203,-232.5"/>
<text text-anchor="middle" x="240" y="-240.5" font-family="Helvetica,sans-Serif" font-size="10.00">boostUtil.cpp</text>
</g>
<!-- Node2 -->
<g id="node3" class="node"><title>Node2</title>
<polygon fill="white" stroke="#bfbfbf" points="0,-174.5 0,-195.5 54,-195.5 54,-174.5 0,-174.5"/>
<text text-anchor="middle" x="27" y="-182.5" font-family="Helvetica,sans-Serif" font-size="10.00">iostream</text>
</g>
<!-- Node1&#45;&gt;Node2 -->
<g id="edge2" class="edge"><title>Node1&#45;&gt;Node2</title>
<path fill="none" stroke="midnightblue" d="M202.939,-233.585C169.084,-224.889 117.421,-211.384 63.7757,-196.157"/>
<polygon fill="midnightblue" stroke="midnightblue" points="64.6715,-192.773 54.095,-193.396 62.7518,-199.505 64.6715,-192.773"/>
</g>
<!-- Node3 -->
<g id="node5" class="node"><title>Node3</title>
<polygon fill="white" stroke="#bfbfbf" points="72,-174.5 72,-195.5 122,-195.5 122,-174.5 72,-174.5"/>
<text text-anchor="middle" x="97" y="-182.5" font-family="Helvetica,sans-Serif" font-size="10.00">iomanip</text>
</g>
<!-- Node1&#45;&gt;Node3 -->
<g id="edge4" class="edge"><title>Node1&#45;&gt;Node3</title>
<path fill="none" stroke="midnightblue" d="M214.104,-232.497C190.98,-223.118 156.936,-209.31 131.507,-198.996"/>
<polygon fill="midnightblue" stroke="midnightblue" points="132.806,-195.746 122.224,-195.231 130.175,-202.233 132.806,-195.746"/>
</g>
<!-- Node4 -->
<g id="node7" class="node"><title>Node4</title>
<polygon fill="white" stroke="#bfbfbf" points="176,-0.5 176,-21.5 220,-21.5 220,-0.5 176,-0.5"/>
<text text-anchor="middle" x="198" y="-8.5" font-family="Helvetica,sans-Serif" font-size="10.00">vector</text>
</g>
<!-- Node1&#45;&gt;Node4 -->
<g id="edge6" class="edge"><title>Node1&#45;&gt;Node4</title>
<path fill="none" stroke="midnightblue" d="M211.942,-232.353C196.262,-224.784 178.095,-212.929 169,-196 139.871,-141.784 169.683,-66.5839 187.191,-31.0841"/>
<polygon fill="midnightblue" stroke="midnightblue" points="190.508,-32.2867 191.948,-21.7902 184.276,-29.0973 190.508,-32.2867"/>
</g>
<!-- Node5 -->
<g id="node9" class="node"><title>Node5</title>
<polygon fill="white" stroke="#bfbfbf" points="462,-174.5 462,-195.5 512,-195.5 512,-174.5 462,-174.5"/>
<text text-anchor="middle" x="487" y="-182.5" font-family="Helvetica,sans-Serif" font-size="10.00">fstream</text>
</g>
<!-- Node1&#45;&gt;Node5 -->
<g id="edge8" class="edge"><title>Node1&#45;&gt;Node5</title>
<path fill="none" stroke="midnightblue" d="M277.339,-235.183C319.079,-226.301 388.613,-211.074 448,-196 449.266,-195.679 450.553,-195.346 451.852,-195.006"/>
<polygon fill="midnightblue" stroke="midnightblue" points="453.137,-198.284 461.877,-192.296 451.31,-191.527 453.137,-198.284"/>
</g>
<!-- Node6 -->
<g id="node11" class="node"><title>Node6</title>
<polygon fill="white" stroke="#bfbfbf" points="365.5,-0.5 365.5,-21.5 438.5,-21.5 438.5,-0.5 365.5,-0.5"/>
<text text-anchor="middle" x="402" y="-8.5" font-family="Helvetica,sans-Serif" font-size="10.00">Eigen/Dense</text>
</g>
<!-- Node1&#45;&gt;Node6 -->
<g id="edge10" class="edge"><title>Node1&#45;&gt;Node6</title>
<path fill="none" stroke="midnightblue" d="M256.607,-232.474C290.819,-209.667 368.342,-151.902 397,-80 403.105,-64.6817 404.1,-45.9475 403.71,-31.8675"/>
<polygon fill="midnightblue" stroke="midnightblue" points="407.197,-31.5278 403.171,-21.7276 400.207,-31.8992 407.197,-31.5278"/>
</g>
<!-- Node7 -->
<g id="node13" class="node"><title>Node7</title>
<a xlink:href="../../d6/de4/_train_examples_8h.html" target="_top" xlink:title="header for TrainExamples.cpp ">
<polygon fill="white" stroke="black" points="218,-116.5 218,-137.5 308,-137.5 308,-116.5 218,-116.5"/>
<text text-anchor="middle" x="263" y="-124.5" font-family="Helvetica,sans-Serif" font-size="10.00">TrainExamples.h</text>
</a>
</g>
<!-- Node1&#45;&gt;Node7 -->
<g id="edge12" class="edge"><title>Node1&#45;&gt;Node7</title>
<path fill="none" stroke="midnightblue" d="M242.712,-232.212C245.055,-222.71 248.456,-208.481 251,-196 254.295,-179.83 257.469,-161.412 259.725,-147.674"/>
<polygon fill="midnightblue" stroke="midnightblue" points="263.181,-148.223 261.321,-137.793 256.271,-147.106 263.181,-148.223"/>
</g>
<!-- Node9 -->
<g id="node19" class="node"><title>Node9</title>
<a xlink:href="../../d1/db9/common_util_8h.html" target="_top" xlink:title="header file for common image IO routines ">
<polygon fill="white" stroke="black" points="291.5,-58.5 291.5,-79.5 368.5,-79.5 368.5,-58.5 291.5,-58.5"/>
<text text-anchor="middle" x="330" y="-66.5" font-family="Helvetica,sans-Serif" font-size="10.00">commonUtil.h</text>
</a>
</g>
<!-- Node1&#45;&gt;Node9 -->
<g id="edge36" class="edge"><title>Node1&#45;&gt;Node9</title>
<path fill="none" stroke="midnightblue" d="M250.368,-232.393C267.197,-214.522 300.26,-176.57 317,-138 323.663,-122.647 326.919,-103.916 328.505,-89.8453"/>
<polygon fill="midnightblue" stroke="midnightblue" points="332.006,-89.9966 329.452,-79.7141 325.036,-89.3448 332.006,-89.9966"/>
</g>
<!-- Node11 -->
<g id="node26" class="node"><title>Node11</title>
<a xlink:href="../../dd/d4e/boost_util_8h.html" target="_top" xlink:title="header file for the Viola&#45;Jones algorithm&#39;s training routines ">
<polygon fill="white" stroke="black" points="178,-174.5 178,-195.5 242,-195.5 242,-174.5 178,-174.5"/>
<text text-anchor="middle" x="210" y="-182.5" font-family="Helvetica,sans-Serif" font-size="10.00">boostUtil.h</text>
</a>
</g>
<!-- Node1&#45;&gt;Node11 -->
<g id="edge30" class="edge"><title>Node1&#45;&gt;Node11</title>
<path fill="none" stroke="midnightblue" d="M234.498,-232.362C230.48,-224.595 224.919,-213.843 220.11,-204.546"/>
<polygon fill="midnightblue" stroke="midnightblue" points="223.171,-202.845 215.468,-195.571 216.953,-206.061 223.171,-202.845"/>
</g>
<!-- Node7&#45;&gt;Node4 -->
<g id="edge16" class="edge"><title>Node7&#45;&gt;Node4</title>
<path fill="none" stroke="midnightblue" d="M257.001,-116.295C246.07,-96.7861 222.761,-55.1884 208.937,-30.5177"/>
<polygon fill="midnightblue" stroke="midnightblue" points="211.926,-28.6921 203.984,-21.6792 205.819,-32.1139 211.926,-28.6921"/>
</g>
<!-- Node7&#45;&gt;Node6 -->
<g id="edge14" class="edge"><title>Node7&#45;&gt;Node6</title>
<path fill="none" stroke="midnightblue" d="M308.028,-117.692C331.321,-110.8 358.642,-99.1738 377,-80 389.621,-66.8182 395.945,-46.7866 399.068,-31.6968"/>
<polygon fill="midnightblue" stroke="midnightblue" points="402.532,-32.2067 400.82,-21.7511 395.638,-30.9922 402.532,-32.2067"/>
</g>
<!-- Node8 -->
<g id="node17" class="node"><title>Node8</title>
<polygon fill="white" stroke="#bfbfbf" points="246,-0.5 246,-21.5 286,-21.5 286,-0.5 246,-0.5"/>
<text text-anchor="middle" x="266" y="-8.5" font-family="Helvetica,sans-Serif" font-size="10.00">utility</text>
</g>
<!-- Node7&#45;&gt;Node8 -->
<g id="edge18" class="edge"><title>Node7&#45;&gt;Node8</title>
<path fill="none" stroke="midnightblue" d="M263.277,-116.295C263.772,-97.1314 264.819,-56.654 265.461,-31.8434"/>
<polygon fill="midnightblue" stroke="midnightblue" points="268.964,-31.7664 265.724,-21.6792 261.966,-31.5853 268.964,-31.7664"/>
</g>
<!-- Node7&#45;&gt;Node9 -->
<g id="edge20" class="edge"><title>Node7&#45;&gt;Node9</title>
<path fill="none" stroke="midnightblue" d="M275.289,-116.362C285.017,-107.941 298.798,-96.0105 310.095,-86.2308"/>
<polygon fill="midnightblue" stroke="midnightblue" points="312.519,-88.7619 317.789,-79.5707 307.938,-83.4695 312.519,-88.7619"/>
</g>
<!-- Node9&#45;&gt;Node4 -->
<g id="edge26" class="edge"><title>Node9&#45;&gt;Node4</title>
<path fill="none" stroke="midnightblue" d="M306.096,-58.4966C284.678,-49.0858 253.11,-35.2149 229.611,-24.8899"/>
<polygon fill="midnightblue" stroke="midnightblue" points="230.969,-21.6635 220.406,-20.8451 228.153,-28.0722 230.969,-21.6635"/>
</g>
<!-- Node9&#45;&gt;Node6 -->
<g id="edge22" class="edge"><title>Node9&#45;&gt;Node6</title>
<path fill="none" stroke="midnightblue" d="M343.206,-58.3619C353.761,-49.859 368.758,-37.7785 380.963,-27.9466"/>
<polygon fill="midnightblue" stroke="midnightblue" points="383.286,-30.5696 388.878,-21.5707 378.895,-25.1183 383.286,-30.5696"/>
</g>
<!-- Node9&#45;&gt;Node8 -->
<g id="edge28" class="edge"><title>Node9&#45;&gt;Node8</title>
<path fill="none" stroke="midnightblue" d="M318.261,-58.3619C309.059,-50.0226 296.06,-38.2418 285.328,-28.5162"/>
<polygon fill="midnightblue" stroke="midnightblue" points="287.424,-25.6924 277.664,-21.5707 282.724,-30.8793 287.424,-25.6924"/>
</g>
<!-- Node10 -->
<g id="node22" class="node"><title>Node10</title>
<polygon fill="white" stroke="#bfbfbf" points="307.5,-0.5 307.5,-21.5 348.5,-21.5 348.5,-0.5 307.5,-0.5"/>
<text text-anchor="middle" x="328" y="-8.5" font-family="Helvetica,sans-Serif" font-size="10.00">string</text>
</g>
<!-- Node9&#45;&gt;Node10 -->
<g id="edge24" class="edge"><title>Node9&#45;&gt;Node10</title>
<path fill="none" stroke="midnightblue" d="M329.633,-58.3619C329.377,-50.9219 329.026,-40.7427 328.715,-31.7276"/>
<polygon fill="midnightblue" stroke="midnightblue" points="332.207,-31.4441 328.365,-21.5707 325.211,-31.6854 332.207,-31.4441"/>
</g>
<!-- Node11&#45;&gt;Node4 -->
<g id="edge32" class="edge"><title>Node11&#45;&gt;Node4</title>
<path fill="none" stroke="midnightblue" d="M209.267,-174.377C207.331,-146.293 202.046,-69.6735 199.462,-32.2027"/>
<polygon fill="midnightblue" stroke="midnightblue" points="202.933,-31.6632 198.754,-21.9277 195.95,-32.1449 202.933,-31.6632"/>
</g>
<!-- Node11&#45;&gt;Node7 -->
<g id="edge34" class="edge"><title>Node11&#45;&gt;Node7</title>
<path fill="none" stroke="midnightblue" d="M219.721,-174.362C227.192,-166.186 237.686,-154.702 246.469,-145.091"/>
<polygon fill="midnightblue" stroke="midnightblue" points="249.179,-147.314 253.341,-137.571 244.011,-142.592 249.179,-147.314"/>
</g>
</g>
</svg>
        <g id="navigator" transform="translate(0 0)" fill="#404254">
                <rect fill="#f2f5e9" fill-opacity="0.5" stroke="#606060" stroke-width=".5" x="0" y="0" width="60" height="60"/>
                <use id="zoomplus" xlink:href="#zoomPlus" x="17" y="9" onmousedown="handleZoom(evt,'in')"/>
                <use id="zoomminus" xlink:href="#zoomMin" x="42" y="9" onmousedown="handleZoom(evt,'out')"/>
                <use id="reset" xlink:href="#resetDef" x="30" y="36" onmousedown="handleReset()"/>
                <g id="arrowUp" xlink:href="#dirArrow" transform="translate(30 24)" onmousedown="handlePan(0,-1)">
                  <use xlink:href="#rim" fill="#404040">
                        <set attributeName="fill" to="#808080" begin="arrowUp.mouseover" end="arrowUp.mouseout"/>
                  </use>
                  <path fill="none" stroke="white" stroke-width="1.5" d="M0,-3.0v7 M-2.5,-0.5L0,-3.0L2.5,-0.5"/>
                </g>
                <g id="arrowRight" xlink:href="#dirArrow" transform="rotate(90) translate(36 -43)" onmousedown="handlePan(1,0)">
                  <use xlink:href="#rim" fill="#404040">
                        <set attributeName="fill" to="#808080" begin="arrowRight.mouseover" end="arrowRight.mouseout"/>
                  </use>
                  <path fill="none" stroke="white" stroke-width="1.5" d="M0,-3.0v7 M-2.5,-0.5L0,-3.0L2.5,-0.5"/>
                </g>
                <g id="arrowDown" xlink:href="#dirArrow" transform="rotate(180) translate(-30 -48)" onmousedown="handlePan(0,1)">
                  <use xlink:href="#rim" fill="#404040">
                        <set attributeName="fill" to="#808080" begin="arrowDown.mouseover" end="arrowDown.mouseout"/>
                  </use>
                  <path fill="none" stroke="white" stroke-width="1.5" d="M0,-3.0v7 M-2.5,-0.5L0,-3.0L2.5,-0.5"/>
                </g>
                <g id="arrowLeft" xlink:href="#dirArrow" transform="rotate(270) translate(-36 17)" onmousedown="handlePan(-1,0)">
                  <use xlink:href="#rim" fill="#404040">
                        <set attributeName="fill" to="#808080" begin="arrowLeft.mouseover" end="arrowLeft.mouseout"/>
                  </use>
                  <path fill="none" stroke="white" stroke-width="1.5" d="M0,-3.0v7 M-2.5,-0.5L0,-3.0L2.5,-0.5"/>
                </g>
        </g>
        <svg viewBox="0 0 15 15" width="100%" height="30px" preserveAspectRatio="xMaxYMin meet">
         <g id="arrow_out" transform="scale(0.3 0.3)">
          <a xlink:href="boost_util_8cpp__incl_org.svg" target="_base">
           <rect id="button" ry="5" rx="5" y="6" x="6" height="38" width="38"
                fill="#f2f5e9" fill-opacity="0.5" stroke="#606060" stroke-width="1.0"/>
           <path id="arrow"
             d="M 11.500037,31.436501 C 11.940474,20.09759 22.043105,11.32322 32.158766,21.979434 L 37.068811,17.246167 C 37.068811,17.246167 37.088388,32 37.088388,32 L 22.160133,31.978069 C 22.160133,31.978069 26.997745,27.140456 26.997745,27.140456 C 18.528582,18.264221 13.291696,25.230495 11.500037,31.436501 z"
             style="fill:#404040;"/>
          </a>
         </g>
        </svg>
</svg>
