<?xml version="1.0" encoding="UTF-8" standalone="no"?>
<!DOCTYPE svg PUBLIC "-//W3C//DTD SVG 1.1//EN"
 "http://www.w3.org/Graphics/SVG/1.1/DTD/svg11.dtd">
<!-- Generated by graphviz version 2.26.3 (20100126.1600)
 -->
<!-- Title: commonUtil.cpp Pages: 1 -->
<svg width="738pt" height="146pt"
 viewBox="0.00 0.00 738.00 146.00" xmlns="http://www.w3.org/2000/svg" xmlns:xlink="http://www.w3.org/1999/xlink">
<g id="graph1" class="graph" transform="scale(1 1) rotate(0) translate(4 142)">
<title>commonUtil.cpp</title>
<polygon fill="white" stroke="white" points="-4,5 -4,-142 735,-142 735,5 -4,5"/>
<!-- Node1 -->
<g id="node1" class="node"><title>Node1</title>
<polygon fill="#bfbfbf" stroke="black" points="331,-116.5 331,-137.5 419,-137.5 419,-116.5 331,-116.5"/>
<text text-anchor="middle" x="375" y="-124.5" font-family="Helvetica,sans-Serif" font-size="10.00">commonUtil.cpp</text>
</g>
<!-- Node2 -->
<g id="node3" class="node"><title>Node2</title>
<polygon fill="white" stroke="#bfbfbf" points="0,-58.5 0,-79.5 54,-79.5 54,-58.5 0,-58.5"/>
<text text-anchor="middle" x="27" y="-66.5" font-family="Helvetica,sans-Serif" font-size="10.00">iostream</text>
</g>
<!-- Node1&#45;&gt;Node2 -->
<g id="edge2" class="edge"><title>Node1&#45;&gt;Node2</title>
<path fill="none" stroke="midnightblue" d="M330.958,-122.433C272.147,-115.882 164.636,-102.326 64.0369,-79.9813"/>
<polygon fill="midnightblue" stroke="midnightblue" points="64.5373,-76.5063 54.0122,-77.7198 62.9968,-83.3347 64.5373,-76.5063"/>
</g>
<!-- Node3 -->
<g id="node5" class="node"><title>Node3</title>
<polygon fill="white" stroke="#bfbfbf" points="72,-58.5 72,-79.5 128,-79.5 128,-58.5 72,-58.5"/>
<text text-anchor="middle" x="100" y="-66.5" font-family="Helvetica,sans-Serif" font-size="10.00">algorithm</text>
</g>
<!-- Node1&#45;&gt;Node3 -->
<g id="edge4" class="edge"><title>Node1&#45;&gt;Node3</title>
<path fill="none" stroke="midnightblue" d="M330.862,-119.565C284.937,-111.545 210.777,-97.7971 137.999,-80.0918"/>
<polygon fill="midnightblue" stroke="midnightblue" points="138.754,-76.6732 128.207,-77.6832 137.081,-83.4706 138.754,-76.6732"/>
</g>
<!-- Node4 -->
<g id="node7" class="node"><title>Node4</title>
<polygon fill="white" stroke="#bfbfbf" points="146,-58.5 146,-79.5 196,-79.5 196,-58.5 146,-58.5"/>
<text text-anchor="middle" x="171" y="-66.5" font-family="Helvetica,sans-Serif" font-size="10.00">fstream</text>
</g>
<!-- Node1&#45;&gt;Node4 -->
<g id="edge6" class="edge"><title>Node1&#45;&gt;Node4</title>
<path fill="none" stroke="midnightblue" d="M335.016,-116.468C302.568,-107.804 255.427,-94.9539 205.83,-80.1724"/>
<polygon fill="midnightblue" stroke="midnightblue" points="206.797,-76.8085 196.213,-77.291 204.788,-83.514 206.797,-76.8085"/>
</g>
<!-- Node5 -->
<g id="node9" class="node"><title>Node5</title>
<polygon fill="white" stroke="#bfbfbf" points="214,-58.5 214,-79.5 276,-79.5 276,-58.5 214,-58.5"/>
<text text-anchor="middle" x="245" y="-66.5" font-family="Helvetica,sans-Serif" font-size="10.00">sys/time.h</text>
</g>
<!-- Node1&#45;&gt;Node5 -->
<g id="edge8" class="edge"><title>Node1&#45;&gt;Node5</title>
<path fill="none" stroke="midnightblue" d="M351.458,-116.497C330.971,-107.356 301.053,-94.0082 278.146,-83.7883"/>
<polygon fill="midnightblue" stroke="midnightblue" points="279.365,-80.4994 268.806,-79.6212 276.512,-86.892 279.365,-80.4994"/>
</g>
<!-- Node6 -->
<g id="node11" class="node"><title>Node6</title>
<polygon fill="white" stroke="#bfbfbf" points="284.5,-0.5 284.5,-21.5 325.5,-21.5 325.5,-0.5 284.5,-0.5"/>
<text text-anchor="middle" x="305" y="-8.5" font-family="Helvetica,sans-Serif" font-size="10.00">string</text>
</g>
<!-- Node1&#45;&gt;Node6 -->
<g id="edge10" class="edge"><title>Node1&#45;&gt;Node6</title>
<path fill="none" stroke="midnightblue" d="M368.54,-116.295C356.767,-96.7861 331.665,-55.1884 316.778,-30.5177"/>
<polygon fill="midnightblue" stroke="midnightblue" points="319.608,-28.4328 311.444,-21.6792 313.614,-32.0494 319.608,-28.4328"/>
</g>
<!-- Node7 -->
<g id="node13" class="node"><title>Node7</title>
<polygon fill="white" stroke="#bfbfbf" points="540,-58.5 540,-79.5 580,-79.5 580,-58.5 540,-58.5"/>
<text text-anchor="middle" x="560" y="-66.5" font-family="Helvetica,sans-Serif" font-size="10.00">limits</text>
</g>
<!-- Node1&#45;&gt;Node7 -->
<g id="edge12" class="edge"><title>Node1&#45;&gt;Node7</title>
<path fill="none" stroke="midnightblue" d="M409.217,-116.469C439.845,-107.014 485.961,-92.7077 526,-80 527.404,-79.5543 528.841,-79.0966 530.291,-78.6329"/>
<polygon fill="midnightblue" stroke="midnightblue" points="531.427,-81.9443 539.876,-75.5517 529.285,-75.2802 531.427,-81.9443"/>
</g>
<!-- Node8 -->
<g id="node15" class="node"><title>Node8</title>
<polygon fill="white" stroke="#bfbfbf" points="345,-0.5 345,-21.5 385,-21.5 385,-0.5 345,-0.5"/>
<text text-anchor="middle" x="365" y="-8.5" font-family="Helvetica,sans-Serif" font-size="10.00">utility</text>
</g>
<!-- Node1&#45;&gt;Node8 -->
<g id="edge14" class="edge"><title>Node1&#45;&gt;Node8</title>
<path fill="none" stroke="midnightblue" d="M370.87,-116.372C367.452,-106.974 362.867,-92.806 361,-80 358.674,-64.0446 359.892,-45.8282 361.574,-32.1205"/>
<polygon fill="midnightblue" stroke="midnightblue" points="365.097,-32.2061 363.029,-21.8151 358.166,-31.2277 365.097,-32.2061"/>
</g>
<!-- Node9 -->
<g id="node17" class="node"><title>Node9</title>
<polygon fill="white" stroke="#bfbfbf" points="406,-0.5 406,-21.5 450,-21.5 450,-0.5 406,-0.5"/>
<text text-anchor="middle" x="428" y="-8.5" font-family="Helvetica,sans-Serif" font-size="10.00">vector</text>
</g>
<!-- Node1&#45;&gt;Node9 -->
<g id="edge16" class="edge"><title>Node1&#45;&gt;Node9</title>
<path fill="none" stroke="midnightblue" d="M408.549,-116.403C425.69,-109.091 444.998,-97.4759 455,-80 464.207,-63.9126 454.495,-44.0749 444.245,-29.8054"/>
<polygon fill="midnightblue" stroke="midnightblue" points="446.861,-27.4673 437.958,-21.7236 441.336,-31.7655 446.861,-27.4673"/>
</g>
<!-- Node10 -->
<g id="node19" class="node"><title>Node10</title>
<a xlink:href="../../dd/d7d/io__png_8h.html" target="_top" xlink:title="io_png.h">
<polygon fill="white" stroke="black" points="597.5,-58.5 597.5,-79.5 650.5,-79.5 650.5,-58.5 597.5,-58.5"/>
<text text-anchor="middle" x="624" y="-66.5" font-family="Helvetica,sans-Serif" font-size="10.00">io_png.h</text>
</a>
</g>
<!-- Node1&#45;&gt;Node10 -->
<g id="edge18" class="edge"><title>Node1&#45;&gt;Node10</title>
<path fill="none" stroke="midnightblue" d="M419.128,-118.494C460.467,-110.261 524.145,-96.9049 587.557,-80.2443"/>
<polygon fill="midnightblue" stroke="midnightblue" points="588.551,-83.6018 597.318,-77.6526 586.755,-76.8362 588.551,-83.6018"/>
</g>
<!-- Node11 -->
<g id="node21" class="node"><title>Node11</title>
<a xlink:href="../../d1/db9/common_util_8h.html" target="_top" xlink:title="header file for common image IO routines ">
<polygon fill="white" stroke="black" points="369.5,-58.5 369.5,-79.5 446.5,-79.5 446.5,-58.5 369.5,-58.5"/>
<text text-anchor="middle" x="408" y="-66.5" font-family="Helvetica,sans-Serif" font-size="10.00">commonUtil.h</text>
</a>
</g>
<!-- Node1&#45;&gt;Node11 -->
<g id="edge20" class="edge"><title>Node1&#45;&gt;Node11</title>
<path fill="none" stroke="midnightblue" d="M381.053,-116.362C385.472,-108.595 391.59,-97.8426 396.879,-88.5458"/>
<polygon fill="midnightblue" stroke="midnightblue" points="400.082,-89.9932 401.986,-79.5707 393.998,-86.5315 400.082,-89.9932"/>
</g>
<!-- Node12 -->
<g id="node23" class="node"><title>Node12</title>
<polygon fill="white" stroke="#bfbfbf" points="474.5,-0.5 474.5,-21.5 547.5,-21.5 547.5,-0.5 474.5,-0.5"/>
<text text-anchor="middle" x="511" y="-8.5" font-family="Helvetica,sans-Serif" font-size="10.00">Eigen/Dense</text>
</g>
<!-- Node1&#45;&gt;Node12 -->
<g id="edge32" class="edge"><title>Node1&#45;&gt;Node12</title>
<path fill="none" stroke="midnightblue" d="M407.283,-116.393C427.103,-108.665 452.044,-96.629 470,-80 484.786,-66.3069 495.951,-46.0635 502.867,-31.041"/>
<polygon fill="midnightblue" stroke="midnightblue" points="506.186,-32.1856 506.969,-21.6197 499.768,-29.3914 506.186,-32.1856"/>
</g>
<!-- Node13 -->
<g id="node28" class="node"><title>Node13</title>
<a xlink:href="../../d0/d46/_detector_8h.html" target="_top" xlink:title="face detector class ">
<polygon fill="white" stroke="black" points="668,-58.5 668,-79.5 730,-79.5 730,-58.5 668,-58.5"/>
<text text-anchor="middle" x="699" y="-66.5" font-family="Helvetica,sans-Serif" font-size="10.00">Detector.h</text>
</a>
</g>
<!-- Node1&#45;&gt;Node13 -->
<g id="edge30" class="edge"><title>Node1&#45;&gt;Node13</title>
<path fill="none" stroke="midnightblue" d="M419.058,-121.163C473.152,-113.676 567.843,-99.532 657.82,-80.1032"/>
<polygon fill="midnightblue" stroke="midnightblue" points="658.612,-83.5127 667.634,-77.9584 657.117,-76.6741 658.612,-83.5127"/>
</g>
<!-- Node11&#45;&gt;Node6 -->
<g id="edge24" class="edge"><title>Node11&#45;&gt;Node6</title>
<path fill="none" stroke="midnightblue" d="M389.108,-58.3619C373.282,-49.4502 350.477,-36.6087 332.605,-26.5447"/>
<polygon fill="midnightblue" stroke="midnightblue" points="334.203,-23.4276 323.772,-21.5707 330.768,-29.5271 334.203,-23.4276"/>
</g>
<!-- Node11&#45;&gt;Node8 -->
<g id="edge28" class="edge"><title>Node11&#45;&gt;Node8</title>
<path fill="none" stroke="midnightblue" d="M400.113,-58.3619C394.173,-50.3496 385.878,-39.1605 378.841,-29.6696"/>
<polygon fill="midnightblue" stroke="midnightblue" points="381.604,-27.5193 372.837,-21.5707 375.981,-31.6883 381.604,-27.5193"/>
</g>
<!-- Node11&#45;&gt;Node9 -->
<g id="edge26" class="edge"><title>Node11&#45;&gt;Node9</title>
<path fill="none" stroke="midnightblue" d="M411.668,-58.3619C414.29,-50.7584 417.899,-40.294 421.057,-31.1349"/>
<polygon fill="midnightblue" stroke="midnightblue" points="424.404,-32.1654 424.355,-21.5707 417.786,-29.8834 424.404,-32.1654"/>
</g>
<!-- Node11&#45;&gt;Node12 -->
<g id="edge22" class="edge"><title>Node11&#45;&gt;Node12</title>
<path fill="none" stroke="midnightblue" d="M426.892,-58.3619C442.718,-49.4502 465.523,-36.6087 483.395,-26.5447"/>
<polygon fill="midnightblue" stroke="midnightblue" points="485.232,-29.5271 492.228,-21.5707 481.797,-23.4276 485.232,-29.5271"/>
</g>
</g>
</svg>
