<?xml version="1.0" encoding="UTF-8" standalone="no"?>
<!DOCTYPE svg PUBLIC "-//W3C//DTD SVG 1.1//EN"
 "http://www.w3.org/Graphics/SVG/1.1/DTD/svg11.dtd">
<!-- Generated by graphviz version 2.26.3 (20100126.1600)
 -->
<!-- Title: TrainExamples.h Pages: 1 -->
<svg width="446pt" height="146pt"
 viewBox="0.00 0.00 446.00 146.00" xmlns="http://www.w3.org/2000/svg" xmlns:xlink="http://www.w3.org/1999/xlink">
<g id="graph1" class="graph" transform="scale(1 1) rotate(0) translate(4 142)">
<title>TrainExamples.h</title>
<polygon fill="white" stroke="white" points="-4,5 -4,-142 443,-142 443,5 -4,5"/>
<!-- Node1 -->
<g id="node1" class="node"><title>Node1</title>
<polygon fill="#bfbfbf" stroke="black" points="131,-116.5 131,-137.5 221,-137.5 221,-116.5 131,-116.5"/>
<text text-anchor="middle" x="176" y="-124.5" font-family="Helvetica,sans-Serif" font-size="10.00">TrainExamples.h</text>
</g>
<!-- Node2 -->
<g id="node3" class="node"><title>Node2</title>
<a xlink:href="../../dd/ddd/boost_util_8cpp.html" target="_top" xlink:title="main training routines for the Viola&#45;Jones algorithm ">
<polygon fill="white" stroke="black" points="0,-0.5 0,-21.5 74,-21.5 74,-0.5 0,-0.5"/>
<text text-anchor="middle" x="37" y="-8.5" font-family="Helvetica,sans-Serif" font-size="10.00">boostUtil.cpp</text>
</a>
</g>
<!-- Node1&#45;&gt;Node2 -->
<g id="edge2" class="edge"><title>Node1&#45;&gt;Node2</title>
<path fill="none" stroke="midnightblue" d="M132.862,-112.74C114.451,-105.122 93.65,-94.3163 78,-80 59.699,-63.2587 47.026,-36.4395 41.0023,-21.6508"/>
<polygon fill="midnightblue" stroke="midnightblue" points="131.645,-116.022 142.232,-116.434 134.213,-109.51 131.645,-116.022"/>
</g>
<!-- Node3 -->
<g id="node5" class="node"><title>Node3</title>
<a xlink:href="../../dd/d4e/boost_util_8h.html" target="_top" xlink:title="header file for the Viola&#45;Jones algorithm&#39;s training routines ">
<polygon fill="white" stroke="black" points="87,-58.5 87,-79.5 151,-79.5 151,-58.5 87,-58.5"/>
<text text-anchor="middle" x="119" y="-66.5" font-family="Helvetica,sans-Serif" font-size="10.00">boostUtil.h</text>
</a>
</g>
<!-- Node1&#45;&gt;Node3 -->
<g id="edge4" class="edge"><title>Node1&#45;&gt;Node3</title>
<path fill="none" stroke="midnightblue" d="M158.426,-109.118C148.913,-99.4377 137.486,-87.8098 129.388,-79.5707"/>
<polygon fill="midnightblue" stroke="midnightblue" points="156.04,-111.683 165.545,-116.362 161.032,-106.776 156.04,-111.683"/>
</g>
<!-- Node5 -->
<g id="node10" class="node"><title>Node5</title>
<a xlink:href="../../d0/d4c/detect_util_8h.html" target="_top" xlink:title="header file for face detection routines ">
<polygon fill="white" stroke="black" points="199.5,-58.5 199.5,-79.5 266.5,-79.5 266.5,-58.5 199.5,-58.5"/>
<text text-anchor="middle" x="233" y="-66.5" font-family="Helvetica,sans-Serif" font-size="10.00">detectUtil.h</text>
</a>
</g>
<!-- Node1&#45;&gt;Node5 -->
<g id="edge10" class="edge"><title>Node1&#45;&gt;Node5</title>
<path fill="none" stroke="midnightblue" d="M193.574,-109.118C203.087,-99.4377 214.514,-87.8098 222.612,-79.5707"/>
<polygon fill="midnightblue" stroke="midnightblue" points="190.968,-106.776 186.455,-116.362 195.96,-111.683 190.968,-106.776"/>
</g>
<!-- Node8 -->
<g id="node16" class="node"><title>Node8</title>
<a xlink:href="../../d6/d73/_train_examples_8cpp.html" target="_top" xlink:title="Training Utils implemented as an cpp object. ">
<polygon fill="white" stroke="black" points="337.5,-0.5 337.5,-21.5 438.5,-21.5 438.5,-0.5 337.5,-0.5"/>
<text text-anchor="middle" x="388" y="-8.5" font-family="Helvetica,sans-Serif" font-size="10.00">TrainExamples.cpp</text>
</a>
</g>
<!-- Node1&#45;&gt;Node8 -->
<g id="edge18" class="edge"><title>Node1&#45;&gt;Node8</title>
<path fill="none" stroke="midnightblue" d="M209.288,-112.254C228.704,-103.393 253.524,-91.613 275,-80 310.384,-60.866 350.196,-35.6481 371.848,-21.6054"/>
<polygon fill="midnightblue" stroke="midnightblue" points="207.618,-109.168 199.952,-116.481 210.505,-115.545 207.618,-109.168"/>
</g>
<!-- Node3&#45;&gt;Node2 -->
<g id="edge6" class="edge"><title>Node3&#45;&gt;Node2</title>
<path fill="none" stroke="midnightblue" d="M95.73,-52.5407C81.6721,-42.5973 64.1698,-30.2177 51.9447,-21.5707"/>
<polygon fill="midnightblue" stroke="midnightblue" points="93.7746,-55.4447 103.96,-58.3619 97.8169,-49.7298 93.7746,-55.4447"/>
</g>
<!-- Node4 -->
<g id="node8" class="node"><title>Node4</title>
<a xlink:href="../../de/dc7/train_8cpp.html" target="_top" xlink:title="command line for training a viola jones cascade detector ">
<polygon fill="white" stroke="black" points="92,-0.5 92,-21.5 146,-21.5 146,-0.5 92,-0.5"/>
<text text-anchor="middle" x="119" y="-8.5" font-family="Helvetica,sans-Serif" font-size="10.00">train.cpp</text>
</a>
</g>
<!-- Node3&#45;&gt;Node4 -->
<g id="edge8" class="edge"><title>Node3&#45;&gt;Node4</title>
<path fill="none" stroke="midnightblue" d="M119,-48.1906C119,-39.1684 119,-28.9941 119,-21.5707"/>
<polygon fill="midnightblue" stroke="midnightblue" points="115.5,-48.3619 119,-58.3619 122.5,-48.3619 115.5,-48.3619"/>
</g>
<!-- Node6 -->
<g id="node12" class="node"><title>Node6</title>
<a xlink:href="../../d9/d6b/detect_8cpp.html" target="_top" xlink:title="command line for the viola jones face detector ">
<polygon fill="white" stroke="black" points="164,-0.5 164,-21.5 226,-21.5 226,-0.5 164,-0.5"/>
<text text-anchor="middle" x="195" y="-8.5" font-family="Helvetica,sans-Serif" font-size="10.00">detect.cpp</text>
</a>
</g>
<!-- Node5&#45;&gt;Node6 -->
<g id="edge12" class="edge"><title>Node5&#45;&gt;Node6</title>
<path fill="none" stroke="midnightblue" d="M220.525,-49.9591C214.342,-40.522 207.11,-29.4835 201.926,-21.5707"/>
<polygon fill="midnightblue" stroke="midnightblue" points="217.622,-51.9154 226.03,-58.3619 223.478,-48.0792 217.622,-51.9154"/>
</g>
<!-- Node7 -->
<g id="node14" class="node"><title>Node7</title>
<a xlink:href="../../d5/dc3/detect_util_8cpp.html" target="_top" xlink:title="common routines for face detection ">
<polygon fill="white" stroke="black" points="243.5,-0.5 243.5,-21.5 320.5,-21.5 320.5,-0.5 243.5,-0.5"/>
<text text-anchor="middle" x="282" y="-8.5" font-family="Helvetica,sans-Serif" font-size="10.00">detectUtil.cpp</text>
</a>
</g>
<!-- Node5&#45;&gt;Node7 -->
<g id="edge14" class="edge"><title>Node5&#45;&gt;Node7</title>
<path fill="none" stroke="midnightblue" d="M248.595,-50.5407C256.673,-40.9786 266.247,-29.6467 273.07,-21.5707"/>
<polygon fill="midnightblue" stroke="midnightblue" points="245.767,-48.4643 241.987,-58.3619 251.115,-52.9818 245.767,-48.4643"/>
</g>
<!-- Node5&#45;&gt;Node8 -->
<g id="edge16" class="edge"><title>Node5&#45;&gt;Node8</title>
<path fill="none" stroke="midnightblue" d="M270.75,-54.8742C298.255,-44.5819 334.921,-30.862 359.878,-21.5231"/>
<polygon fill="midnightblue" stroke="midnightblue" points="269.208,-51.7139 261.069,-58.4966 271.662,-58.27 269.208,-51.7139"/>
</g>
</g>
</svg>
