<?xml version="1.0" encoding="UTF-8" standalone="no"?>
<!DOCTYPE svg PUBLIC "-//W3C//DTD SVG 1.1//EN"
 "http://www.w3.org/Graphics/SVG/1.1/DTD/svg11.dtd">
<!-- Generated by graphviz version 2.26.3 (20100126.1600)
 -->
<!-- Title: Detector.h Pages: 1 -->
<svg width="280pt" height="88pt"
 viewBox="0.00 0.00 280.00 88.00" xmlns="http://www.w3.org/2000/svg" xmlns:xlink="http://www.w3.org/1999/xlink">
<g id="graph1" class="graph" transform="scale(1 1) rotate(0) translate(4 84)">
<title>Detector.h</title>
<polygon fill="white" stroke="white" points="-4,5 -4,-84 277,-84 277,5 -4,5"/>
<!-- Node1 -->
<g id="node1" class="node"><title>Node1</title>
<polygon fill="#bfbfbf" stroke="black" points="111,-58.5 111,-79.5 173,-79.5 173,-58.5 111,-58.5"/>
<text text-anchor="middle" x="142" y="-66.5" font-family="Helvetica,sans-Serif" font-size="10.00">Detector.h</text>
</g>
<!-- Node2 -->
<g id="node3" class="node"><title>Node2</title>
<a xlink:href="../../dd/d4b/common_util_8cpp.html" target="_top" xlink:title="common routines for image IO ">
<polygon fill="white" stroke="black" points="0,-0.5 0,-21.5 88,-21.5 88,-0.5 0,-0.5"/>
<text text-anchor="middle" x="44" y="-8.5" font-family="Helvetica,sans-Serif" font-size="10.00">commonUtil.cpp</text>
</a>
</g>
<!-- Node1&#45;&gt;Node2 -->
<g id="edge2" class="edge"><title>Node1&#45;&gt;Node2</title>
<path fill="none" stroke="midnightblue" d="M115.136,-53.1009C98.1802,-43.0658 76.7469,-30.3808 61.8608,-21.5707"/>
<polygon fill="midnightblue" stroke="midnightblue" points="113.637,-56.2807 124.025,-58.3619 117.202,-50.2566 113.637,-56.2807"/>
</g>
<!-- Node3 -->
<g id="node5" class="node"><title>Node3</title>
<a xlink:href="../../d1/ddb/_detector_8cpp.html" target="_top" xlink:title="face detector data ">
<polygon fill="white" stroke="black" points="105.5,-0.5 105.5,-21.5 178.5,-21.5 178.5,-0.5 105.5,-0.5"/>
<text text-anchor="middle" x="142" y="-8.5" font-family="Helvetica,sans-Serif" font-size="10.00">Detector.cpp</text>
</a>
</g>
<!-- Node1&#45;&gt;Node3 -->
<g id="edge4" class="edge"><title>Node1&#45;&gt;Node3</title>
<path fill="none" stroke="midnightblue" d="M142,-48.1906C142,-39.1684 142,-28.9941 142,-21.5707"/>
<polygon fill="midnightblue" stroke="midnightblue" points="138.5,-48.3619 142,-58.3619 145.5,-48.3619 138.5,-48.3619"/>
</g>
<!-- Node4 -->
<g id="node7" class="node"><title>Node4</title>
<a xlink:href="../../d5/dc3/detect_util_8cpp.html" target="_top" xlink:title="common routines for face detection ">
<polygon fill="white" stroke="black" points="195.5,-0.5 195.5,-21.5 272.5,-21.5 272.5,-0.5 195.5,-0.5"/>
<text text-anchor="middle" x="234" y="-8.5" font-family="Helvetica,sans-Serif" font-size="10.00">detectUtil.cpp</text>
</a>
</g>
<!-- Node1&#45;&gt;Node4 -->
<g id="edge6" class="edge"><title>Node1&#45;&gt;Node4</title>
<path fill="none" stroke="midnightblue" d="M167.662,-52.8215C183.509,-42.8312 203.387,-30.2993 217.233,-21.5707"/>
<polygon fill="midnightblue" stroke="midnightblue" points="165.467,-50.0681 158.874,-58.3619 169.2,-55.9896 165.467,-50.0681"/>
</g>
</g>
</svg>
