<?xml version="1.0" encoding="UTF-8" standalone="no"?>
<!DOCTYPE svg PUBLIC "-//W3C//DTD SVG 1.1//EN"
 "http://www.w3.org/Graphics/SVG/1.1/DTD/svg11.dtd">
<!-- Generated by graphviz version 2.26.3 (20100126.1600)
 -->
<!-- Title: boostUtil.h Pages: 1 -->
<svg width="258pt" height="204pt"
 viewBox="0.00 0.00 258.00 204.00" xmlns="http://www.w3.org/2000/svg" xmlns:xlink="http://www.w3.org/1999/xlink">
<g id="graph1" class="graph" transform="scale(1 1) rotate(0) translate(4 200)">
<title>boostUtil.h</title>
<polygon fill="white" stroke="white" points="-4,5 -4,-200 255,-200 255,5 -4,5"/>
<!-- Node1 -->
<g id="node1" class="node"><title>Node1</title>
<polygon fill="#bfbfbf" stroke="black" points="28,-174.5 28,-195.5 92,-195.5 92,-174.5 28,-174.5"/>
<text text-anchor="middle" x="60" y="-182.5" font-family="Helvetica,sans-Serif" font-size="10.00">boostUtil.h</text>
</g>
<!-- Node2 -->
<g id="node3" class="node"><title>Node2</title>
<polygon fill="white" stroke="#bfbfbf" points="0,-0.5 0,-21.5 44,-21.5 44,-0.5 0,-0.5"/>
<text text-anchor="middle" x="22" y="-8.5" font-family="Helvetica,sans-Serif" font-size="10.00">vector</text>
</g>
<!-- Node1&#45;&gt;Node2 -->
<g id="edge2" class="edge"><title>Node1&#45;&gt;Node2</title>
<path fill="none" stroke="midnightblue" d="M55.8274,-174.317C52.2725,-164.884 47.2392,-150.695 44,-138 34.5968,-101.147 27.982,-57.2465 24.598,-31.9024"/>
<polygon fill="midnightblue" stroke="midnightblue" points="28.0265,-31.1236 23.2721,-21.6555 21.0843,-32.0219 28.0265,-31.1236"/>
</g>
<!-- Node3 -->
<g id="node5" class="node"><title>Node3</title>
<a xlink:href="../../d6/de4/_train_examples_8h.html" target="_top" xlink:title="header for TrainExamples.cpp ">
<polygon fill="white" stroke="black" points="53,-116.5 53,-137.5 143,-137.5 143,-116.5 53,-116.5"/>
<text text-anchor="middle" x="98" y="-124.5" font-family="Helvetica,sans-Serif" font-size="10.00">TrainExamples.h</text>
</a>
</g>
<!-- Node1&#45;&gt;Node3 -->
<g id="edge4" class="edge"><title>Node1&#45;&gt;Node3</title>
<path fill="none" stroke="midnightblue" d="M66.9698,-174.362C72.1657,-166.431 79.4006,-155.389 85.5775,-145.961"/>
<polygon fill="midnightblue" stroke="midnightblue" points="88.5217,-147.853 91.0744,-137.571 82.6665,-144.017 88.5217,-147.853"/>
</g>
<!-- Node3&#45;&gt;Node2 -->
<g id="edge8" class="edge"><title>Node3&#45;&gt;Node2</title>
<path fill="none" stroke="midnightblue" d="M90.9863,-116.295C78.1481,-96.6998 50.7096,-54.8198 34.5736,-30.1913"/>
<polygon fill="midnightblue" stroke="midnightblue" points="37.4046,-28.1257 28.9967,-21.6792 31.5494,-31.9619 37.4046,-28.1257"/>
</g>
<!-- Node4 -->
<g id="node7" class="node"><title>Node4</title>
<polygon fill="white" stroke="#bfbfbf" points="61.5,-0.5 61.5,-21.5 134.5,-21.5 134.5,-0.5 61.5,-0.5"/>
<text text-anchor="middle" x="98" y="-8.5" font-family="Helvetica,sans-Serif" font-size="10.00">Eigen/Dense</text>
</g>
<!-- Node3&#45;&gt;Node4 -->
<g id="edge6" class="edge"><title>Node3&#45;&gt;Node4</title>
<path fill="none" stroke="midnightblue" d="M98,-116.295C98,-97.1314 98,-56.654 98,-31.8434"/>
<polygon fill="midnightblue" stroke="midnightblue" points="101.5,-31.6792 98,-21.6792 94.5001,-31.6792 101.5,-31.6792"/>
</g>
<!-- Node5 -->
<g id="node10" class="node"><title>Node5</title>
<polygon fill="white" stroke="#bfbfbf" points="210,-0.5 210,-21.5 250,-21.5 250,-0.5 210,-0.5"/>
<text text-anchor="middle" x="230" y="-8.5" font-family="Helvetica,sans-Serif" font-size="10.00">utility</text>
</g>
<!-- Node3&#45;&gt;Node5 -->
<g id="edge10" class="edge"><title>Node3&#45;&gt;Node5</title>
<path fill="none" stroke="midnightblue" d="M143.249,-118.16C166.518,-111.406 193.575,-99.7612 211,-80 222.656,-66.7811 227.229,-47.0277 228.989,-32.0392"/>
<polygon fill="midnightblue" stroke="midnightblue" points="232.508,-31.9512 229.857,-21.6934 225.533,-31.3656 232.508,-31.9512"/>
</g>
<!-- Node6 -->
<g id="node12" class="node"><title>Node6</title>
<a xlink:href="../../d1/db9/common_util_8h.html" target="_top" xlink:title="header file for common image IO routines ">
<polygon fill="white" stroke="black" points="125.5,-58.5 125.5,-79.5 202.5,-79.5 202.5,-58.5 125.5,-58.5"/>
<text text-anchor="middle" x="164" y="-66.5" font-family="Helvetica,sans-Serif" font-size="10.00">commonUtil.h</text>
</a>
</g>
<!-- Node3&#45;&gt;Node6 -->
<g id="edge12" class="edge"><title>Node3&#45;&gt;Node6</title>
<path fill="none" stroke="midnightblue" d="M110.105,-116.362C119.688,-107.941 133.264,-96.0105 144.393,-86.2308"/>
<polygon fill="midnightblue" stroke="midnightblue" points="146.77,-88.8009 151.971,-79.5707 142.149,-83.5427 146.77,-88.8009"/>
</g>
<!-- Node6&#45;&gt;Node2 -->
<g id="edge18" class="edge"><title>Node6&#45;&gt;Node2</title>
<path fill="none" stroke="midnightblue" d="M138.285,-58.4966C114.578,-48.8134 79.3098,-34.4082 53.8336,-24.0025"/>
<polygon fill="midnightblue" stroke="midnightblue" points="54.8368,-20.6316 44.2558,-20.0904 52.1899,-27.1118 54.8368,-20.6316"/>
</g>
<!-- Node6&#45;&gt;Node4 -->
<g id="edge14" class="edge"><title>Node6&#45;&gt;Node4</title>
<path fill="none" stroke="midnightblue" d="M151.895,-58.3619C142.312,-49.9408 128.736,-38.0105 117.607,-28.2308"/>
<polygon fill="midnightblue" stroke="midnightblue" points="119.851,-25.5427 110.029,-21.5707 115.23,-30.8009 119.851,-25.5427"/>
</g>
<!-- Node6&#45;&gt;Node5 -->
<g id="edge20" class="edge"><title>Node6&#45;&gt;Node5</title>
<path fill="none" stroke="midnightblue" d="M176.105,-58.3619C185.688,-49.9408 199.264,-38.0105 210.393,-28.2308"/>
<polygon fill="midnightblue" stroke="midnightblue" points="212.77,-30.8009 217.971,-21.5707 208.149,-25.5427 212.77,-30.8009"/>
</g>
<!-- Node7 -->
<g id="node15" class="node"><title>Node7</title>
<polygon fill="white" stroke="#bfbfbf" points="151.5,-0.5 151.5,-21.5 192.5,-21.5 192.5,-0.5 151.5,-0.5"/>
<text text-anchor="middle" x="172" y="-8.5" font-family="Helvetica,sans-Serif" font-size="10.00">string</text>
</g>
<!-- Node6&#45;&gt;Node7 -->
<g id="edge16" class="edge"><title>Node6&#45;&gt;Node7</title>
<path fill="none" stroke="midnightblue" d="M165.467,-58.3619C166.494,-50.9219 167.898,-40.7427 169.141,-31.7276"/>
<polygon fill="midnightblue" stroke="midnightblue" points="172.643,-31.9551 170.542,-21.5707 165.708,-30.9986 172.643,-31.9551"/>
</g>
</g>
</svg>
