<?xml version="1.0" encoding="UTF-8" standalone="no"?>
<!DOCTYPE svg PUBLIC "-//W3C//DTD SVG 1.1//EN"
 "http://www.w3.org/Graphics/SVG/1.1/DTD/svg11.dtd">
<!-- Generated by graphviz version 2.26.3 (20100126.1600)
 -->
<!-- Title: boostUtil.h Pages: 1 -->
<svg width="154pt" height="88pt"
 viewBox="0.00 0.00 154.00 88.00" xmlns="http://www.w3.org/2000/svg" xmlns:xlink="http://www.w3.org/1999/xlink">
<g id="graph1" class="graph" transform="scale(1 1) rotate(0) translate(4 84)">
<title>boostUtil.h</title>
<polygon fill="white" stroke="white" points="-4,5 -4,-84 151,-84 151,5 -4,5"/>
<!-- Node1 -->
<g id="node1" class="node"><title>Node1</title>
<polygon fill="#bfbfbf" stroke="black" points="46,-58.5 46,-79.5 110,-79.5 110,-58.5 46,-58.5"/>
<text text-anchor="middle" x="78" y="-66.5" font-family="Helvetica,sans-Serif" font-size="10.00">boostUtil.h</text>
</g>
<!-- Node2 -->
<g id="node3" class="node"><title>Node2</title>
<a xlink:href="../../dd/ddd/boost_util_8cpp.html" target="_top" xlink:title="main training routines for the Viola&#45;Jones algorithm ">
<polygon fill="white" stroke="black" points="0,-0.5 0,-21.5 74,-21.5 74,-0.5 0,-0.5"/>
<text text-anchor="middle" x="37" y="-8.5" font-family="Helvetica,sans-Serif" font-size="10.00">boostUtil.cpp</text>
</a>
</g>
<!-- Node1&#45;&gt;Node2 -->
<g id="edge2" class="edge"><title>Node1&#45;&gt;Node2</title>
<path fill="none" stroke="midnightblue" d="M64.54,-49.9591C57.869,-40.522 50.0659,-29.4835 44.4724,-21.5707"/>
<polygon fill="midnightblue" stroke="midnightblue" points="61.8495,-52.2165 70.48,-58.3619 67.5656,-48.1758 61.8495,-52.2165"/>
</g>
<!-- Node3 -->
<g id="node5" class="node"><title>Node3</title>
<a xlink:href="../../de/dc7/train_8cpp.html" target="_top" xlink:title="command line for training a viola jones cascade detector ">
<polygon fill="white" stroke="black" points="92,-0.5 92,-21.5 146,-21.5 146,-0.5 92,-0.5"/>
<text text-anchor="middle" x="119" y="-8.5" font-family="Helvetica,sans-Serif" font-size="10.00">train.cpp</text>
</a>
</g>
<!-- Node1&#45;&gt;Node3 -->
<g id="edge4" class="edge"><title>Node1&#45;&gt;Node3</title>
<path fill="none" stroke="midnightblue" d="M91.46,-49.9591C98.131,-40.522 105.934,-29.4835 111.528,-21.5707"/>
<polygon fill="midnightblue" stroke="midnightblue" points="88.4344,-48.1758 85.52,-58.3619 94.1505,-52.2165 88.4344,-48.1758"/>
</g>
</g>
</svg>
