<?xml version="1.0" encoding="UTF-8" standalone="no"?>
<!DOCTYPE svg PUBLIC "-//W3C//DTD SVG 1.1//EN"
 "http://www.w3.org/Graphics/SVG/1.1/DTD/svg11.dtd">
<!-- Generated by graphviz version 2.26.3 (20100126.1600)
 -->
<!-- Title: connected.h Pages: 1 -->
<svg width="126pt" height="88pt"
 viewBox="0.00 0.00 126.00 88.00" xmlns="http://www.w3.org/2000/svg" xmlns:xlink="http://www.w3.org/1999/xlink">
<g id="graph1" class="graph" transform="scale(1 1) rotate(0) translate(4 84)">
<title>connected.h</title>
<polygon fill="white" stroke="white" points="-4,5 -4,-84 123,-84 123,5 -4,5"/>
<!-- Node1 -->
<g id="node1" class="node"><title>Node1</title>
<polygon fill="#bfbfbf" stroke="black" points="21,-58.5 21,-79.5 91,-79.5 91,-58.5 21,-58.5"/>
<text text-anchor="middle" x="56" y="-66.5" font-family="Helvetica,sans-Serif" font-size="10.00">connected.h</text>
</g>
<!-- Node2 -->
<g id="node3" class="node"><title>Node2</title>
<polygon fill="white" stroke="#bfbfbf" points="0,-0.5 0,-21.5 44,-21.5 44,-0.5 0,-0.5"/>
<text text-anchor="middle" x="22" y="-8.5" font-family="Helvetica,sans-Serif" font-size="10.00">vector</text>
</g>
<!-- Node1&#45;&gt;Node2 -->
<g id="edge2" class="edge"><title>Node1&#45;&gt;Node2</title>
<path fill="none" stroke="midnightblue" d="M49.7639,-58.3619C45.1629,-50.5131 38.7748,-39.6159 33.2861,-30.2527"/>
<polygon fill="midnightblue" stroke="midnightblue" points="36.2733,-28.4276 28.1966,-21.5707 30.2344,-31.9677 36.2733,-28.4276"/>
</g>
<!-- Node3 -->
<g id="node5" class="node"><title>Node3</title>
<polygon fill="white" stroke="#bfbfbf" points="62,-0.5 62,-21.5 118,-21.5 118,-0.5 62,-0.5"/>
<text text-anchor="middle" x="90" y="-8.5" font-family="Helvetica,sans-Serif" font-size="10.00">algorithm</text>
</g>
<!-- Node1&#45;&gt;Node3 -->
<g id="edge4" class="edge"><title>Node1&#45;&gt;Node3</title>
<path fill="none" stroke="midnightblue" d="M62.2361,-58.3619C66.8371,-50.5131 73.2252,-39.6159 78.7139,-30.2527"/>
<polygon fill="midnightblue" stroke="midnightblue" points="81.7656,-31.9677 83.8034,-21.5707 75.7267,-28.4276 81.7656,-31.9677"/>
</g>
</g>
</svg>
