<?xml version="1.0" encoding="UTF-8" standalone="no"?>
<!DOCTYPE svg PUBLIC "-//W3C//DTD SVG 1.1//EN"
 "http://www.w3.org/Graphics/SVG/1.1/DTD/svg11.dtd">
<!-- Generated by graphviz version 2.26.3 (20100126.1600)
 -->
<!-- Title: detectUtil.cpp Pages: 1 -->
<svg width="892pt" height="262pt"
 viewBox="0.00 0.00 892.00 262.00" xmlns="http://www.w3.org/2000/svg" xmlns:xlink="http://www.w3.org/1999/xlink">
<g id="graph1" class="graph" transform="scale(1 1) rotate(0) translate(4 258)">
<title>detectUtil.cpp</title>
<polygon fill="white" stroke="white" points="-4,5 -4,-258 889,-258 889,5 -4,5"/>
<!-- Node1 -->
<g id="node1" class="node"><title>Node1</title>
<polygon fill="#bfbfbf" stroke="black" points="378.5,-232.5 378.5,-253.5 455.5,-253.5 455.5,-232.5 378.5,-232.5"/>
<text text-anchor="middle" x="417" y="-240.5" font-family="Helvetica,sans-Serif" font-size="10.00">detectUtil.cpp</text>
</g>
<!-- Node2 -->
<g id="node3" class="node"><title>Node2</title>
<polygon fill="white" stroke="#bfbfbf" points="-0.5,-174.5 -0.5,-195.5 58.5,-195.5 58.5,-174.5 -0.5,-174.5"/>
<text text-anchor="middle" x="29" y="-182.5" font-family="Helvetica,sans-Serif" font-size="10.00">functional</text>
</g>
<!-- Node1&#45;&gt;Node2 -->
<g id="edge2" class="edge"><title>Node1&#45;&gt;Node2</title>
<path fill="none" stroke="midnightblue" d="M378.474,-239.215C314.47,-232.6 182.349,-217.557 72,-196 70.9034,-195.786 69.7931,-195.561 68.6741,-195.326"/>
<polygon fill="midnightblue" stroke="midnightblue" points="69.0327,-191.819 58.5066,-193.024 67.4869,-198.646 69.0327,-191.819"/>
</g>
<!-- Node3 -->
<g id="node5" class="node"><title>Node3</title>
<a xlink:href="../../d7/d12/connected_8h.html" target="_top" xlink:title="a version of connected component algorithm ">
<polygon fill="white" stroke="black" points="114,-174.5 114,-195.5 184,-195.5 184,-174.5 114,-174.5"/>
<text text-anchor="middle" x="149" y="-182.5" font-family="Helvetica,sans-Serif" font-size="10.00">connected.h</text>
</a>
</g>
<!-- Node1&#45;&gt;Node3 -->
<g id="edge4" class="edge"><title>Node1&#45;&gt;Node3</title>
<path fill="none" stroke="midnightblue" d="M378.207,-234.79C334.415,-225.495 261.05,-209.842 198,-196 196.731,-195.721 195.443,-195.438 194.143,-195.151"/>
<polygon fill="midnightblue" stroke="midnightblue" points="194.576,-191.662 184.055,-192.912 193.059,-198.495 194.576,-191.662"/>
</g>
<!-- Node4 -->
<g id="node7" class="node"><title>Node4</title>
<polygon fill="white" stroke="#bfbfbf" points="152,-0.5 152,-21.5 196,-21.5 196,-0.5 152,-0.5"/>
<text text-anchor="middle" x="174" y="-8.5" font-family="Helvetica,sans-Serif" font-size="10.00">vector</text>
</g>
<!-- Node1&#45;&gt;Node4 -->
<g id="edge16" class="edge"><title>Node1&#45;&gt;Node4</title>
<path fill="none" stroke="midnightblue" d="M378.333,-239.97C298.762,-233.343 122.643,-216.5 105,-196 61.5515,-145.516 123.808,-65.0913 156.339,-29.2591"/>
<polygon fill="midnightblue" stroke="midnightblue" points="158.909,-31.635 163.151,-21.9265 153.78,-26.8705 158.909,-31.635"/>
</g>
<!-- Node5 -->
<g id="node9" class="node"><title>Node5</title>
<polygon fill="white" stroke="#bfbfbf" points="152,-116.5 152,-137.5 208,-137.5 208,-116.5 152,-116.5"/>
<text text-anchor="middle" x="180" y="-124.5" font-family="Helvetica,sans-Serif" font-size="10.00">algorithm</text>
</g>
<!-- Node1&#45;&gt;Node5 -->
<g id="edge14" class="edge"><title>Node1&#45;&gt;Node5</title>
<path fill="none" stroke="midnightblue" d="M378.162,-239.983C339.47,-235.433 279.689,-224.099 236,-196 216.658,-183.56 200.854,-162.213 191.026,-146.549"/>
<polygon fill="midnightblue" stroke="midnightblue" points="193.843,-144.44 185.701,-137.661 187.838,-148.038 193.843,-144.44"/>
</g>
<!-- Node6 -->
<g id="node11" class="node"><title>Node6</title>
<polygon fill="white" stroke="#bfbfbf" points="418,-174.5 418,-195.5 472,-195.5 472,-174.5 418,-174.5"/>
<text text-anchor="middle" x="445" y="-182.5" font-family="Helvetica,sans-Serif" font-size="10.00">iostream</text>
</g>
<!-- Node1&#45;&gt;Node6 -->
<g id="edge10" class="edge"><title>Node1&#45;&gt;Node6</title>
<path fill="none" stroke="midnightblue" d="M422.136,-232.362C425.846,-224.677 430.967,-214.069 435.422,-204.84"/>
<polygon fill="midnightblue" stroke="midnightblue" points="438.701,-206.098 439.897,-195.571 432.397,-203.055 438.701,-206.098"/>
</g>
<!-- Node7 -->
<g id="node13" class="node"><title>Node7</title>
<polygon fill="white" stroke="#bfbfbf" points="490,-174.5 490,-195.5 540,-195.5 540,-174.5 490,-174.5"/>
<text text-anchor="middle" x="515" y="-182.5" font-family="Helvetica,sans-Serif" font-size="10.00">iomanip</text>
</g>
<!-- Node1&#45;&gt;Node7 -->
<g id="edge12" class="edge"><title>Node1&#45;&gt;Node7</title>
<path fill="none" stroke="midnightblue" d="M434.975,-232.362C449.894,-223.532 471.333,-210.844 488.266,-200.822"/>
<polygon fill="midnightblue" stroke="midnightblue" points="490.316,-203.676 497.139,-195.571 486.751,-197.652 490.316,-203.676"/>
</g>
<!-- Node8 -->
<g id="node17" class="node"><title>Node8</title>
<polygon fill="white" stroke="#bfbfbf" points="557.5,-174.5 557.5,-195.5 598.5,-195.5 598.5,-174.5 557.5,-174.5"/>
<text text-anchor="middle" x="578" y="-182.5" font-family="Helvetica,sans-Serif" font-size="10.00">stack</text>
</g>
<!-- Node1&#45;&gt;Node8 -->
<g id="edge18" class="edge"><title>Node1&#45;&gt;Node8</title>
<path fill="none" stroke="midnightblue" d="M447.208,-232.442C472.015,-223.728 508.291,-210.886 547.851,-196.383"/>
<polygon fill="midnightblue" stroke="midnightblue" points="549.246,-199.599 557.424,-192.864 546.831,-193.029 549.246,-199.599"/>
</g>
<!-- Node9 -->
<g id="node19" class="node"><title>Node9</title>
<polygon fill="white" stroke="#bfbfbf" points="616,-174.5 616,-195.5 666,-195.5 666,-174.5 616,-174.5"/>
<text text-anchor="middle" x="641" y="-182.5" font-family="Helvetica,sans-Serif" font-size="10.00">fstream</text>
</g>
<!-- Node1&#45;&gt;Node9 -->
<g id="edge20" class="edge"><title>Node1&#45;&gt;Node9</title>
<path fill="none" stroke="midnightblue" d="M455.784,-234.25C492.223,-225.842 548.467,-212.386 605.844,-196.203"/>
<polygon fill="midnightblue" stroke="midnightblue" points="607.149,-199.471 615.809,-193.368 605.233,-192.738 607.149,-199.471"/>
</g>
<!-- Node10 -->
<g id="node21" class="node"><title>Node10</title>
<polygon fill="white" stroke="#bfbfbf" points="684,-174.5 684,-195.5 744,-195.5 744,-174.5 684,-174.5"/>
<text text-anchor="middle" x="714" y="-182.5" font-family="Helvetica,sans-Serif" font-size="10.00">streambuf</text>
</g>
<!-- Node1&#45;&gt;Node10 -->
<g id="edge22" class="edge"><title>Node1&#45;&gt;Node10</title>
<path fill="none" stroke="midnightblue" d="M455.699,-237.123C504.438,-229.465 590.915,-215.026 673.99,-196.083"/>
<polygon fill="midnightblue" stroke="midnightblue" points="674.881,-199.469 683.839,-193.812 673.309,-192.648 674.881,-199.469"/>
</g>
<!-- Node11 -->
<g id="node23" class="node"><title>Node11</title>
<polygon fill="white" stroke="#bfbfbf" points="761.5,-174.5 761.5,-195.5 804.5,-195.5 804.5,-174.5 761.5,-174.5"/>
<text text-anchor="middle" x="783" y="-182.5" font-family="Helvetica,sans-Serif" font-size="10.00">cstdio</text>
</g>
<!-- Node1&#45;&gt;Node11 -->
<g id="edge24" class="edge"><title>Node1&#45;&gt;Node11</title>
<path fill="none" stroke="midnightblue" d="M455.551,-240.284C516.764,-235.395 639.918,-223.206 751.489,-196.013"/>
<polygon fill="midnightblue" stroke="midnightblue" points="752.352,-199.405 761.213,-193.597 750.664,-192.612 752.352,-199.405"/>
</g>
<!-- Node12 -->
<g id="node25" class="node"><title>Node12</title>
<polygon fill="white" stroke="#bfbfbf" points="380.5,-0.5 380.5,-21.5 453.5,-21.5 453.5,-0.5 380.5,-0.5"/>
<text text-anchor="middle" x="417" y="-8.5" font-family="Helvetica,sans-Serif" font-size="10.00">Eigen/Dense</text>
</g>
<!-- Node1&#45;&gt;Node12 -->
<g id="edge26" class="edge"><title>Node1&#45;&gt;Node12</title>
<path fill="none" stroke="midnightblue" d="M414.636,-232.239C412.681,-222.755 410.059,-208.536 409,-196 408.177,-186.257 407.679,-183.688 409,-174 411.243,-157.546 414.829,-154.073 419,-138 425.661,-112.332 429.867,-106.332 433,-80 434.155,-70.2907 434.597,-67.6465 433,-58 431.495,-48.9115 428.458,-39.2199 425.431,-31.0129"/>
<polygon fill="midnightblue" stroke="midnightblue" points="428.634,-29.5937 421.717,-21.5683 422.119,-32.1555 428.634,-29.5937"/>
</g>
<!-- Node13 -->
<g id="node27" class="node"><title>Node13</title>
<a xlink:href="../../d1/db9/common_util_8h.html" target="_top" xlink:title="header file for common image IO routines ">
<polygon fill="white" stroke="black" points="239.5,-58.5 239.5,-79.5 316.5,-79.5 316.5,-58.5 239.5,-58.5"/>
<text text-anchor="middle" x="278" y="-66.5" font-family="Helvetica,sans-Serif" font-size="10.00">commonUtil.h</text>
</a>
</g>
<!-- Node1&#45;&gt;Node13 -->
<g id="edge28" class="edge"><title>Node1&#45;&gt;Node13</title>
<path fill="none" stroke="midnightblue" d="M378.483,-234.008C344.387,-225.21 298.325,-210.98 287,-196 263.569,-165.005 268.072,-116.697 273.195,-89.4654"/>
<polygon fill="midnightblue" stroke="midnightblue" points="276.656,-90.0149 275.277,-79.5103 269.804,-88.5823 276.656,-90.0149"/>
</g>
<!-- Node16 -->
<g id="node35" class="node"><title>Node16</title>
<a xlink:href="../../d0/d4c/detect_util_8h.html" target="_top" xlink:title="header file for face detection routines ">
<polygon fill="white" stroke="black" points="295.5,-174.5 295.5,-195.5 362.5,-195.5 362.5,-174.5 295.5,-174.5"/>
<text text-anchor="middle" x="329" y="-182.5" font-family="Helvetica,sans-Serif" font-size="10.00">detectUtil.h</text>
</a>
</g>
<!-- Node1&#45;&gt;Node16 -->
<g id="edge38" class="edge"><title>Node1&#45;&gt;Node16</title>
<path fill="none" stroke="midnightblue" d="M400.859,-232.362C387.586,-223.614 368.568,-211.079 353.43,-201.101"/>
<polygon fill="midnightblue" stroke="midnightblue" points="355.314,-198.151 345.038,-195.571 351.462,-203.996 355.314,-198.151"/>
</g>
<!-- Node18 -->
<g id="node45" class="node"><title>Node18</title>
<a xlink:href="../../d0/d46/_detector_8h.html" target="_top" xlink:title="face detector class ">
<polygon fill="white" stroke="black" points="822,-174.5 822,-195.5 884,-195.5 884,-174.5 822,-174.5"/>
<text text-anchor="middle" x="853" y="-182.5" font-family="Helvetica,sans-Serif" font-size="10.00">Detector.h</text>
</a>
</g>
<!-- Node1&#45;&gt;Node18 -->
<g id="edge54" class="edge"><title>Node1&#45;&gt;Node18</title>
<path fill="none" stroke="midnightblue" d="M455.526,-240.36C524.927,-235.188 675.634,-222.058 811.493,-196.072"/>
<polygon fill="midnightblue" stroke="midnightblue" points="812.514,-199.439 821.663,-194.097 811.179,-192.567 812.514,-199.439"/>
</g>
<!-- Node3&#45;&gt;Node4 -->
<g id="edge6" class="edge"><title>Node3&#45;&gt;Node4</title>
<path fill="none" stroke="midnightblue" d="M147.227,-174.21C145.76,-164.708 143.793,-150.478 143,-138 142.38,-128.242 141.611,-125.679 143,-116 146.816,-89.4103 152.388,-83.7611 160,-58 162.55,-49.3706 165.38,-39.8557 167.825,-31.6573"/>
<polygon fill="midnightblue" stroke="midnightblue" points="171.254,-32.4066 170.761,-21.8233 164.547,-30.4041 171.254,-32.4066"/>
</g>
<!-- Node3&#45;&gt;Node5 -->
<g id="edge8" class="edge"><title>Node3&#45;&gt;Node5</title>
<path fill="none" stroke="midnightblue" d="M154.686,-174.362C158.837,-166.595 164.584,-155.843 169.553,-146.546"/>
<polygon fill="midnightblue" stroke="midnightblue" points="172.723,-148.04 174.35,-137.571 166.55,-144.74 172.723,-148.04"/>
</g>
<!-- Node13&#45;&gt;Node4 -->
<g id="edge34" class="edge"><title>Node13&#45;&gt;Node4</title>
<path fill="none" stroke="midnightblue" d="M258.925,-58.3619C242.945,-49.4502 219.919,-36.6087 201.873,-26.5447"/>
<polygon fill="midnightblue" stroke="midnightblue" points="203.393,-23.3846 192.954,-21.5707 199.983,-29.4982 203.393,-23.3846"/>
</g>
<!-- Node13&#45;&gt;Node12 -->
<g id="edge30" class="edge"><title>Node13&#45;&gt;Node12</title>
<path fill="none" stroke="midnightblue" d="M303.172,-58.4966C325.273,-49.2746 357.639,-35.7695 382.213,-25.5153"/>
<polygon fill="midnightblue" stroke="midnightblue" points="383.665,-28.7022 391.546,-21.6212 380.969,-22.2421 383.665,-28.7022"/>
</g>
<!-- Node14 -->
<g id="node30" class="node"><title>Node14</title>
<polygon fill="white" stroke="#bfbfbf" points="257.5,-0.5 257.5,-21.5 298.5,-21.5 298.5,-0.5 257.5,-0.5"/>
<text text-anchor="middle" x="278" y="-8.5" font-family="Helvetica,sans-Serif" font-size="10.00">string</text>
</g>
<!-- Node13&#45;&gt;Node14 -->
<g id="edge32" class="edge"><title>Node13&#45;&gt;Node14</title>
<path fill="none" stroke="midnightblue" d="M278,-58.3619C278,-50.9219 278,-40.7427 278,-31.7276"/>
<polygon fill="midnightblue" stroke="midnightblue" points="281.5,-31.5706 278,-21.5707 274.5,-31.5707 281.5,-31.5706"/>
</g>
<!-- Node15 -->
<g id="node33" class="node"><title>Node15</title>
<polygon fill="white" stroke="#bfbfbf" points="320,-0.5 320,-21.5 360,-21.5 360,-0.5 320,-0.5"/>
<text text-anchor="middle" x="340" y="-8.5" font-family="Helvetica,sans-Serif" font-size="10.00">utility</text>
</g>
<!-- Node13&#45;&gt;Node15 -->
<g id="edge36" class="edge"><title>Node13&#45;&gt;Node15</title>
<path fill="none" stroke="midnightblue" d="M289.372,-58.3619C298.286,-50.0226 310.879,-38.2418 321.276,-28.5162"/>
<polygon fill="midnightblue" stroke="midnightblue" points="323.789,-30.9582 328.7,-21.5707 319.007,-25.8463 323.789,-30.9582"/>
</g>
<!-- Node16&#45;&gt;Node4 -->
<g id="edge42" class="edge"><title>Node16&#45;&gt;Node4</title>
<path fill="none" stroke="midnightblue" d="M311.667,-174.474C285.062,-157.546 233.992,-121.891 203,-80 192.161,-65.3494 184.494,-46.0417 179.777,-31.577"/>
<polygon fill="midnightblue" stroke="midnightblue" points="183.005,-30.1621 176.741,-21.6172 176.309,-32.2032 183.005,-30.1621"/>
</g>
<!-- Node16&#45;&gt;Node12 -->
<g id="edge40" class="edge"><title>Node16&#45;&gt;Node12</title>
<path fill="none" stroke="midnightblue" d="M355.959,-174.36C371.736,-166.68 390.552,-154.706 401,-138 421.518,-105.192 421.527,-58.2594 419.433,-31.5947"/>
<polygon fill="midnightblue" stroke="midnightblue" points="422.905,-31.1262 418.461,-21.5082 415.937,-31.7979 422.905,-31.1262"/>
</g>
<!-- Node17 -->
<g id="node39" class="node"><title>Node17</title>
<a xlink:href="../../d6/de4/_train_examples_8h.html" target="_top" xlink:title="header for TrainExamples.cpp ">
<polygon fill="white" stroke="black" points="302,-116.5 302,-137.5 392,-137.5 392,-116.5 302,-116.5"/>
<text text-anchor="middle" x="347" y="-124.5" font-family="Helvetica,sans-Serif" font-size="10.00">TrainExamples.h</text>
</a>
</g>
<!-- Node16&#45;&gt;Node17 -->
<g id="edge44" class="edge"><title>Node16&#45;&gt;Node17</title>
<path fill="none" stroke="midnightblue" d="M332.301,-174.362C334.661,-166.758 337.909,-156.294 340.751,-147.135"/>
<polygon fill="midnightblue" stroke="midnightblue" points="344.098,-148.159 343.719,-137.571 337.413,-146.084 344.098,-148.159"/>
</g>
<!-- Node17&#45;&gt;Node4 -->
<g id="edge48" class="edge"><title>Node17&#45;&gt;Node4</title>
<path fill="none" stroke="midnightblue" d="M307.729,-116.452C284.021,-108.835 254.044,-96.8953 231,-80 212.529,-66.4572 196.431,-45.6334 186.097,-30.4035"/>
<polygon fill="midnightblue" stroke="midnightblue" points="188.844,-28.2086 180.438,-21.7588 182.987,-32.0425 188.844,-28.2086"/>
</g>
<!-- Node17&#45;&gt;Node12 -->
<g id="edge46" class="edge"><title>Node17&#45;&gt;Node12</title>
<path fill="none" stroke="midnightblue" d="M353.46,-116.295C365.233,-96.7861 390.335,-55.1884 405.222,-30.5177"/>
<polygon fill="midnightblue" stroke="midnightblue" points="408.386,-32.0494 410.556,-21.6792 402.392,-28.4328 408.386,-32.0494"/>
</g>
<!-- Node17&#45;&gt;Node13 -->
<g id="edge52" class="edge"><title>Node17&#45;&gt;Node13</title>
<path fill="none" stroke="midnightblue" d="M334.344,-116.362C324.326,-107.941 310.133,-96.0105 298.499,-86.2308"/>
<polygon fill="midnightblue" stroke="midnightblue" points="300.482,-83.326 290.575,-79.5707 295.978,-88.6844 300.482,-83.326"/>
</g>
<!-- Node17&#45;&gt;Node15 -->
<g id="edge50" class="edge"><title>Node17&#45;&gt;Node15</title>
<path fill="none" stroke="midnightblue" d="M346.354,-116.295C345.198,-97.1314 342.755,-56.654 341.258,-31.8434"/>
<polygon fill="midnightblue" stroke="midnightblue" points="344.741,-31.4502 340.644,-21.6792 337.753,-31.8719 344.741,-31.4502"/>
</g>
</g>
</svg>
