<?xml version="1.0" encoding="UTF-8" standalone="no"?>
<!DOCTYPE svg PUBLIC "-//W3C//DTD SVG 1.1//EN"
 "http://www.w3.org/Graphics/SVG/1.1/DTD/svg11.dtd">
<!-- Generated by graphviz version 2.26.3 (20100126.1600)
 -->
<!-- Title: detect.cpp Pages: 1 -->
<svg width="428pt" height="262pt"
 viewBox="0.00 0.00 428.00 262.00" xmlns="http://www.w3.org/2000/svg" xmlns:xlink="http://www.w3.org/1999/xlink">
<g id="graph1" class="graph" transform="scale(1 1) rotate(0) translate(4 258)">
<title>detect.cpp</title>
<polygon fill="white" stroke="white" points="-4,5 -4,-258 425,-258 425,5 -4,5"/>
<!-- Node1 -->
<g id="node1" class="node"><title>Node1</title>
<polygon fill="#bfbfbf" stroke="black" points="94,-232.5 94,-253.5 156,-253.5 156,-232.5 94,-232.5"/>
<text text-anchor="middle" x="125" y="-240.5" font-family="Helvetica,sans-Serif" font-size="10.00">detect.cpp</text>
</g>
<!-- Node2 -->
<g id="node3" class="node"><title>Node2</title>
<polygon fill="white" stroke="#bfbfbf" points="0,-174.5 0,-195.5 54,-195.5 54,-174.5 0,-174.5"/>
<text text-anchor="middle" x="27" y="-182.5" font-family="Helvetica,sans-Serif" font-size="10.00">iostream</text>
</g>
<!-- Node1&#45;&gt;Node2 -->
<g id="edge2" class="edge"><title>Node1&#45;&gt;Node2</title>
<path fill="none" stroke="midnightblue" d="M107.025,-232.362C92.1058,-223.532 70.6674,-210.844 53.7344,-200.822"/>
<polygon fill="midnightblue" stroke="midnightblue" points="55.2492,-197.652 44.8608,-195.571 51.6839,-203.676 55.2492,-197.652"/>
</g>
<!-- Node3 -->
<g id="node5" class="node"><title>Node3</title>
<polygon fill="white" stroke="#bfbfbf" points="72,-174.5 72,-195.5 124,-195.5 124,-174.5 72,-174.5"/>
<text text-anchor="middle" x="98" y="-182.5" font-family="Helvetica,sans-Serif" font-size="10.00">sstream</text>
</g>
<!-- Node1&#45;&gt;Node3 -->
<g id="edge4" class="edge"><title>Node1&#45;&gt;Node3</title>
<path fill="none" stroke="midnightblue" d="M120.048,-232.362C116.47,-224.677 111.532,-214.069 107.236,-204.84"/>
<polygon fill="midnightblue" stroke="midnightblue" points="110.314,-203.159 102.921,-195.571 103.968,-206.114 110.314,-203.159"/>
</g>
<!-- Node4 -->
<g id="node7" class="node"><title>Node4</title>
<polygon fill="white" stroke="#bfbfbf" points="132.5,-0.5 132.5,-21.5 173.5,-21.5 173.5,-0.5 132.5,-0.5"/>
<text text-anchor="middle" x="153" y="-8.5" font-family="Helvetica,sans-Serif" font-size="10.00">string</text>
</g>
<!-- Node1&#45;&gt;Node4 -->
<g id="edge6" class="edge"><title>Node1&#45;&gt;Node4</title>
<path fill="none" stroke="midnightblue" d="M127.03,-232.202C128.772,-222.694 131.268,-208.461 133,-196 141.233,-136.78 148.015,-66.4929 151.141,-32.0937"/>
<polygon fill="midnightblue" stroke="midnightblue" points="154.651,-32.1442 152.058,-21.8715 147.679,-31.5189 154.651,-32.1442"/>
</g>
<!-- Node5 -->
<g id="node9" class="node"><title>Node5</title>
<a xlink:href="../../d0/d4c/detect_util_8h.html" target="_top" xlink:title="header file for face detection routines ">
<polygon fill="white" stroke="black" points="220.5,-174.5 220.5,-195.5 287.5,-195.5 287.5,-174.5 220.5,-174.5"/>
<text text-anchor="middle" x="254" y="-182.5" font-family="Helvetica,sans-Serif" font-size="10.00">detectUtil.h</text>
</a>
</g>
<!-- Node1&#45;&gt;Node5 -->
<g id="edge8" class="edge"><title>Node1&#45;&gt;Node5</title>
<path fill="none" stroke="midnightblue" d="M148.361,-232.497C168.691,-223.356 198.378,-210.008 221.109,-199.788"/>
<polygon fill="midnightblue" stroke="midnightblue" points="222.692,-202.914 230.377,-195.621 219.821,-196.53 222.692,-202.914"/>
</g>
<!-- Node6 -->
<g id="node11" class="node"><title>Node6</title>
<polygon fill="white" stroke="#bfbfbf" points="191.5,-0.5 191.5,-21.5 264.5,-21.5 264.5,-0.5 191.5,-0.5"/>
<text text-anchor="middle" x="228" y="-8.5" font-family="Helvetica,sans-Serif" font-size="10.00">Eigen/Dense</text>
</g>
<!-- Node5&#45;&gt;Node6 -->
<g id="edge10" class="edge"><title>Node5&#45;&gt;Node6</title>
<path fill="none" stroke="midnightblue" d="M250.249,-174.305C247.074,-164.864 242.632,-150.671 240,-138 232.344,-101.144 229.565,-57.2447 228.561,-31.9014"/>
<polygon fill="midnightblue" stroke="midnightblue" points="232.051,-31.5306 228.214,-21.6549 225.055,-31.7678 232.051,-31.5306"/>
</g>
<!-- Node7 -->
<g id="node13" class="node"><title>Node7</title>
<polygon fill="white" stroke="#bfbfbf" points="376,-0.5 376,-21.5 420,-21.5 420,-0.5 376,-0.5"/>
<text text-anchor="middle" x="398" y="-8.5" font-family="Helvetica,sans-Serif" font-size="10.00">vector</text>
</g>
<!-- Node5&#45;&gt;Node7 -->
<g id="edge12" class="edge"><title>Node5&#45;&gt;Node7</title>
<path fill="none" stroke="midnightblue" d="M287.177,-174.332C306.768,-166.699 330.983,-154.785 348,-138 377.654,-108.749 390.159,-59.7902 395.083,-31.9791"/>
<polygon fill="midnightblue" stroke="midnightblue" points="398.589,-32.2224 396.713,-21.7951 391.677,-31.1167 398.589,-32.2224"/>
</g>
<!-- Node8 -->
<g id="node15" class="node"><title>Node8</title>
<a xlink:href="../../d6/de4/_train_examples_8h.html" target="_top" xlink:title="header for TrainExamples.cpp ">
<polygon fill="white" stroke="black" points="249,-116.5 249,-137.5 339,-137.5 339,-116.5 249,-116.5"/>
<text text-anchor="middle" x="294" y="-124.5" font-family="Helvetica,sans-Serif" font-size="10.00">TrainExamples.h</text>
</a>
</g>
<!-- Node5&#45;&gt;Node8 -->
<g id="edge14" class="edge"><title>Node5&#45;&gt;Node8</title>
<path fill="none" stroke="midnightblue" d="M261.337,-174.362C266.806,-166.431 274.422,-155.389 280.924,-145.961"/>
<polygon fill="midnightblue" stroke="midnightblue" points="283.914,-147.79 286.71,-137.571 278.151,-143.816 283.914,-147.79"/>
</g>
<!-- Node8&#45;&gt;Node6 -->
<g id="edge16" class="edge"><title>Node8&#45;&gt;Node6</title>
<path fill="none" stroke="midnightblue" d="M280.118,-116.49C269.57,-107.801 255.474,-94.5615 247,-80 238.419,-65.2559 233.578,-46.4799 230.932,-32.2378"/>
<polygon fill="midnightblue" stroke="midnightblue" points="234.318,-31.2566 229.252,-21.9515 227.41,-32.385 234.318,-31.2566"/>
</g>
<!-- Node8&#45;&gt;Node7 -->
<g id="edge18" class="edge"><title>Node8&#45;&gt;Node7</title>
<path fill="none" stroke="midnightblue" d="M311.457,-116.353C324.727,-107.684 342.874,-94.5359 356,-80 369.44,-65.1161 380.97,-45.3305 388.531,-30.7634"/>
<polygon fill="midnightblue" stroke="midnightblue" points="391.753,-32.1449 393.105,-21.6366 385.495,-29.0083 391.753,-32.1449"/>
</g>
<!-- Node9 -->
<g id="node19" class="node"><title>Node9</title>
<polygon fill="white" stroke="#bfbfbf" points="300,-0.5 300,-21.5 340,-21.5 340,-0.5 300,-0.5"/>
<text text-anchor="middle" x="320" y="-8.5" font-family="Helvetica,sans-Serif" font-size="10.00">utility</text>
</g>
<!-- Node8&#45;&gt;Node9 -->
<g id="edge20" class="edge"><title>Node8&#45;&gt;Node9</title>
<path fill="none" stroke="midnightblue" d="M309.929,-116.346C320.954,-107.944 334.729,-95.1389 341,-80 347.774,-63.645 340.662,-44.3106 332.935,-30.2755"/>
<polygon fill="midnightblue" stroke="midnightblue" points="335.81,-28.2651 327.65,-21.5072 329.814,-31.8786 335.81,-28.2651"/>
</g>
<!-- Node10 -->
<g id="node21" class="node"><title>Node10</title>
<a xlink:href="../../d1/db9/common_util_8h.html" target="_top" xlink:title="header file for common image IO routines ">
<polygon fill="white" stroke="black" points="255.5,-58.5 255.5,-79.5 332.5,-79.5 332.5,-58.5 255.5,-58.5"/>
<text text-anchor="middle" x="294" y="-66.5" font-family="Helvetica,sans-Serif" font-size="10.00">commonUtil.h</text>
</a>
</g>
<!-- Node8&#45;&gt;Node10 -->
<g id="edge22" class="edge"><title>Node8&#45;&gt;Node10</title>
<path fill="none" stroke="midnightblue" d="M294,-116.362C294,-108.922 294,-98.7427 294,-89.7276"/>
<polygon fill="midnightblue" stroke="midnightblue" points="297.5,-89.5706 294,-79.5707 290.5,-89.5707 297.5,-89.5706"/>
</g>
<!-- Node10&#45;&gt;Node4 -->
<g id="edge26" class="edge"><title>Node10&#45;&gt;Node4</title>
<path fill="none" stroke="midnightblue" d="M268.466,-58.4966C244.505,-48.6405 208.652,-33.8923 183.264,-23.4489"/>
<polygon fill="midnightblue" stroke="midnightblue" points="184.338,-20.1065 173.759,-19.5391 181.676,-26.5802 184.338,-20.1065"/>
</g>
<!-- Node10&#45;&gt;Node6 -->
<g id="edge24" class="edge"><title>Node10&#45;&gt;Node6</title>
<path fill="none" stroke="midnightblue" d="M281.895,-58.3619C272.312,-49.9408 258.736,-38.0105 247.607,-28.2308"/>
<polygon fill="midnightblue" stroke="midnightblue" points="249.851,-25.5427 240.029,-21.5707 245.23,-30.8009 249.851,-25.5427"/>
</g>
<!-- Node10&#45;&gt;Node7 -->
<g id="edge28" class="edge"><title>Node10&#45;&gt;Node7</title>
<path fill="none" stroke="midnightblue" d="M313.075,-58.3619C329.055,-49.4502 352.081,-36.6087 370.127,-26.5447"/>
<polygon fill="midnightblue" stroke="midnightblue" points="372.017,-29.4982 379.046,-21.5707 368.607,-23.3846 372.017,-29.4982"/>
</g>
<!-- Node10&#45;&gt;Node9 -->
<g id="edge30" class="edge"><title>Node10&#45;&gt;Node9</title>
<path fill="none" stroke="midnightblue" d="M298.769,-58.3619C302.214,-50.6766 306.969,-40.0686 311.106,-30.8399"/>
<polygon fill="midnightblue" stroke="midnightblue" points="314.365,-32.1275 315.261,-21.5707 307.977,-29.264 314.365,-32.1275"/>
</g>
</g>
</svg>
