<?xml version="1.0" encoding="UTF-8" standalone="no"?>
<!DOCTYPE svg PUBLIC "-//W3C//DTD SVG 1.1//EN"
 "http://www.w3.org/Graphics/SVG/1.1/DTD/svg11.dtd">
<!-- Generated by graphviz version 2.26.3 (20100126.1600)
 -->
<!-- Title: TrainExamples.cpp Pages: 1 -->
<svg width="399pt" height="262pt"
 viewBox="0.00 0.00 399.00 262.00" xmlns="http://www.w3.org/2000/svg" xmlns:xlink="http://www.w3.org/1999/xlink">
<g id="graph1" class="graph" transform="scale(1 1) rotate(0) translate(4 258)">
<title>TrainExamples.cpp</title>
<polygon fill="white" stroke="white" points="-4,5 -4,-258 396,-258 396,5 -4,5"/>
<!-- Node1 -->
<g id="node1" class="node"><title>Node1</title>
<polygon fill="#bfbfbf" stroke="black" points="140.5,-232.5 140.5,-253.5 241.5,-253.5 241.5,-232.5 140.5,-232.5"/>
<text text-anchor="middle" x="191" y="-240.5" font-family="Helvetica,sans-Serif" font-size="10.00">TrainExamples.cpp</text>
</g>
<!-- Node2 -->
<g id="node3" class="node"><title>Node2</title>
<polygon fill="white" stroke="#bfbfbf" points="0,-174.5 0,-195.5 54,-195.5 54,-174.5 0,-174.5"/>
<text text-anchor="middle" x="27" y="-182.5" font-family="Helvetica,sans-Serif" font-size="10.00">iostream</text>
</g>
<!-- Node1&#45;&gt;Node2 -->
<g id="edge2" class="edge"><title>Node1&#45;&gt;Node2</title>
<path fill="none" stroke="midnightblue" d="M161.301,-232.497C133.851,-222.789 92.9806,-208.335 63.5403,-197.923"/>
<polygon fill="midnightblue" stroke="midnightblue" points="64.6251,-194.594 54.0303,-194.559 62.2911,-201.193 64.6251,-194.594"/>
</g>
<!-- Node3 -->
<g id="node5" class="node"><title>Node3</title>
<polygon fill="white" stroke="#bfbfbf" points="72,-174.5 72,-195.5 122,-195.5 122,-174.5 72,-174.5"/>
<text text-anchor="middle" x="97" y="-182.5" font-family="Helvetica,sans-Serif" font-size="10.00">fstream</text>
</g>
<!-- Node1&#45;&gt;Node3 -->
<g id="edge4" class="edge"><title>Node1&#45;&gt;Node3</title>
<path fill="none" stroke="midnightblue" d="M173.759,-232.362C159.448,-223.532 138.885,-210.844 122.643,-200.822"/>
<polygon fill="midnightblue" stroke="midnightblue" points="124.48,-197.843 114.132,-195.571 120.804,-203.8 124.48,-197.843"/>
</g>
<!-- Node4 -->
<g id="node7" class="node"><title>Node4</title>
<polygon fill="white" stroke="#bfbfbf" points="140,-174.5 140,-195.5 190,-195.5 190,-174.5 140,-174.5"/>
<text text-anchor="middle" x="165" y="-182.5" font-family="Helvetica,sans-Serif" font-size="10.00">iomanip</text>
</g>
<!-- Node1&#45;&gt;Node4 -->
<g id="edge6" class="edge"><title>Node1&#45;&gt;Node4</title>
<path fill="none" stroke="midnightblue" d="M186.231,-232.362C182.786,-224.677 178.031,-214.069 173.894,-204.84"/>
<polygon fill="midnightblue" stroke="midnightblue" points="177.023,-203.264 169.739,-195.571 170.635,-206.127 177.023,-203.264"/>
</g>
<!-- Node5 -->
<g id="node9" class="node"><title>Node5</title>
<a xlink:href="../../d6/de4/_train_examples_8h.html" target="_top" xlink:title="header for TrainExamples.cpp ">
<polygon fill="white" stroke="black" points="246,-116.5 246,-137.5 336,-137.5 336,-116.5 246,-116.5"/>
<text text-anchor="middle" x="291" y="-124.5" font-family="Helvetica,sans-Serif" font-size="10.00">TrainExamples.h</text>
</a>
</g>
<!-- Node1&#45;&gt;Node5 -->
<g id="edge8" class="edge"><title>Node1&#45;&gt;Node5</title>
<path fill="none" stroke="midnightblue" d="M200.475,-232.199C208.805,-222.69 221.242,-208.456 232,-196 246.674,-179.01 263.284,-159.565 275.133,-145.657"/>
<polygon fill="midnightblue" stroke="midnightblue" points="278.018,-147.668 281.835,-137.785 272.688,-143.13 278.018,-147.668"/>
</g>
<!-- Node9 -->
<g id="node17" class="node"><title>Node9</title>
<a xlink:href="../../d1/db9/common_util_8h.html" target="_top" xlink:title="header file for common image IO routines ">
<polygon fill="white" stroke="black" points="183.5,-58.5 183.5,-79.5 260.5,-79.5 260.5,-58.5 183.5,-58.5"/>
<text text-anchor="middle" x="222" y="-66.5" font-family="Helvetica,sans-Serif" font-size="10.00">commonUtil.h</text>
</a>
</g>
<!-- Node1&#45;&gt;Node9 -->
<g id="edge26" class="edge"><title>Node1&#45;&gt;Node9</title>
<path fill="none" stroke="midnightblue" d="M192.893,-232.377C197.896,-204.293 211.547,-127.673 218.223,-90.2027"/>
<polygon fill="midnightblue" stroke="midnightblue" points="221.745,-90.3866 220.053,-79.9277 214.853,-89.1588 221.745,-90.3866"/>
</g>
<!-- Node11 -->
<g id="node25" class="node"><title>Node11</title>
<a xlink:href="../../d0/d4c/detect_util_8h.html" target="_top" xlink:title="header file for face detection routines ">
<polygon fill="white" stroke="black" points="324.5,-174.5 324.5,-195.5 391.5,-195.5 391.5,-174.5 324.5,-174.5"/>
<text text-anchor="middle" x="358" y="-182.5" font-family="Helvetica,sans-Serif" font-size="10.00">detectUtil.h</text>
</a>
</g>
<!-- Node1&#45;&gt;Node11 -->
<g id="edge28" class="edge"><title>Node1&#45;&gt;Node11</title>
<path fill="none" stroke="midnightblue" d="M221.242,-232.497C248.35,-223.082 288.31,-209.204 318.043,-198.877"/>
<polygon fill="midnightblue" stroke="midnightblue" points="319.403,-202.11 327.701,-195.523 317.106,-195.498 319.403,-202.11"/>
</g>
<!-- Node6 -->
<g id="node11" class="node"><title>Node6</title>
<polygon fill="white" stroke="#bfbfbf" points="251.5,-0.5 251.5,-21.5 324.5,-21.5 324.5,-0.5 251.5,-0.5"/>
<text text-anchor="middle" x="288" y="-8.5" font-family="Helvetica,sans-Serif" font-size="10.00">Eigen/Dense</text>
</g>
<!-- Node5&#45;&gt;Node6 -->
<g id="edge10" class="edge"><title>Node5&#45;&gt;Node6</title>
<path fill="none" stroke="midnightblue" d="M290.723,-116.295C290.228,-97.1314 289.181,-56.654 288.539,-31.8434"/>
<polygon fill="midnightblue" stroke="midnightblue" points="292.034,-31.5853 288.276,-21.6792 285.036,-31.7664 292.034,-31.5853"/>
</g>
<!-- Node7 -->
<g id="node13" class="node"><title>Node7</title>
<polygon fill="white" stroke="#bfbfbf" points="342,-0.5 342,-21.5 386,-21.5 386,-0.5 342,-0.5"/>
<text text-anchor="middle" x="364" y="-8.5" font-family="Helvetica,sans-Serif" font-size="10.00">vector</text>
</g>
<!-- Node5&#45;&gt;Node7 -->
<g id="edge12" class="edge"><title>Node5&#45;&gt;Node7</title>
<path fill="none" stroke="midnightblue" d="M297.737,-116.295C310.068,-96.6998 336.424,-54.8198 351.923,-30.1913"/>
<polygon fill="midnightblue" stroke="midnightblue" points="354.915,-32.007 357.279,-21.6792 348.991,-28.2786 354.915,-32.007"/>
</g>
<!-- Node8 -->
<g id="node15" class="node"><title>Node8</title>
<polygon fill="white" stroke="#bfbfbf" points="136,-0.5 136,-21.5 176,-21.5 176,-0.5 136,-0.5"/>
<text text-anchor="middle" x="156" y="-8.5" font-family="Helvetica,sans-Serif" font-size="10.00">utility</text>
</g>
<!-- Node5&#45;&gt;Node8 -->
<g id="edge14" class="edge"><title>Node5&#45;&gt;Node8</title>
<path fill="none" stroke="midnightblue" d="M245.722,-118.771C221.588,-112.157 193.202,-100.452 175,-80 163.283,-66.8349 158.717,-47.0757 156.975,-32.0713"/>
<polygon fill="midnightblue" stroke="midnightblue" points="160.431,-31.3911 156.122,-21.7122 153.455,-31.9659 160.431,-31.3911"/>
</g>
<!-- Node5&#45;&gt;Node9 -->
<g id="edge16" class="edge"><title>Node5&#45;&gt;Node9</title>
<path fill="none" stroke="midnightblue" d="M278.344,-116.362C268.326,-107.941 254.133,-96.0105 242.499,-86.2308"/>
<polygon fill="midnightblue" stroke="midnightblue" points="244.482,-83.326 234.575,-79.5707 239.978,-88.6844 244.482,-83.326"/>
</g>
<!-- Node9&#45;&gt;Node6 -->
<g id="edge18" class="edge"><title>Node9&#45;&gt;Node6</title>
<path fill="none" stroke="midnightblue" d="M234.105,-58.3619C243.688,-49.9408 257.264,-38.0105 268.393,-28.2308"/>
<polygon fill="midnightblue" stroke="midnightblue" points="270.77,-30.8009 275.971,-21.5707 266.149,-25.5427 270.77,-30.8009"/>
</g>
<!-- Node9&#45;&gt;Node7 -->
<g id="edge22" class="edge"><title>Node9&#45;&gt;Node7</title>
<path fill="none" stroke="midnightblue" d="M247.715,-58.4966C271.422,-48.8134 306.69,-34.4082 332.166,-24.0025"/>
<polygon fill="midnightblue" stroke="midnightblue" points="333.81,-27.1118 341.744,-20.0904 331.163,-20.6316 333.81,-27.1118"/>
</g>
<!-- Node9&#45;&gt;Node8 -->
<g id="edge24" class="edge"><title>Node9&#45;&gt;Node8</title>
<path fill="none" stroke="midnightblue" d="M209.895,-58.3619C200.312,-49.9408 186.736,-38.0105 175.607,-28.2308"/>
<polygon fill="midnightblue" stroke="midnightblue" points="177.851,-25.5427 168.029,-21.5707 173.23,-30.8009 177.851,-25.5427"/>
</g>
<!-- Node10 -->
<g id="node20" class="node"><title>Node10</title>
<polygon fill="white" stroke="#bfbfbf" points="193.5,-0.5 193.5,-21.5 234.5,-21.5 234.5,-0.5 193.5,-0.5"/>
<text text-anchor="middle" x="214" y="-8.5" font-family="Helvetica,sans-Serif" font-size="10.00">string</text>
</g>
<!-- Node9&#45;&gt;Node10 -->
<g id="edge20" class="edge"><title>Node9&#45;&gt;Node10</title>
<path fill="none" stroke="midnightblue" d="M220.533,-58.3619C219.506,-50.9219 218.102,-40.7427 216.859,-31.7276"/>
<polygon fill="midnightblue" stroke="midnightblue" points="220.292,-30.9986 215.458,-21.5707 213.357,-31.9551 220.292,-30.9986"/>
</g>
<!-- Node11&#45;&gt;Node5 -->
<g id="edge34" class="edge"><title>Node11&#45;&gt;Node5</title>
<path fill="none" stroke="midnightblue" d="M345.711,-174.362C335.983,-165.941 322.202,-154.011 310.905,-144.231"/>
<polygon fill="midnightblue" stroke="midnightblue" points="313.062,-141.469 303.211,-137.571 308.481,-146.762 313.062,-141.469"/>
</g>
<!-- Node11&#45;&gt;Node6 -->
<g id="edge30" class="edge"><title>Node11&#45;&gt;Node6</title>
<path fill="none" stroke="midnightblue" d="M357.041,-174.448C355.56,-160.678 352.109,-135.984 345,-116 333.717,-84.2836 313.831,-50.5801 300.785,-30.1566"/>
<polygon fill="midnightblue" stroke="midnightblue" points="303.549,-27.9872 295.162,-21.513 297.681,-31.8041 303.549,-27.9872"/>
</g>
<!-- Node11&#45;&gt;Node7 -->
<g id="edge32" class="edge"><title>Node11&#45;&gt;Node7</title>
<path fill="none" stroke="midnightblue" d="M364.08,-174.203C368.933,-164.929 375.342,-151.033 378,-138 385.104,-103.161 383.129,-93.1837 378,-58 376.687,-48.9958 374.031,-39.3181 371.381,-31.0986"/>
<polygon fill="midnightblue" stroke="midnightblue" points="374.687,-29.9496 368.13,-21.6276 368.066,-32.2223 374.687,-29.9496"/>
</g>
</g>
</svg>
