<?xml version="1.0" encoding="UTF-8" standalone="no"?>
<!DOCTYPE svg PUBLIC "-//W3C//DTD SVG 1.1//EN"
 "http://www.w3.org/Graphics/SVG/1.1/DTD/svg11.dtd">
<!-- Generated by graphviz version 2.26.3 (20100126.1600)
 -->
<!-- Title: train.cpp Pages: 1 -->
<svg width="320pt" height="262pt"
 viewBox="0.00 0.00 320.00 262.00" xmlns="http://www.w3.org/2000/svg" xmlns:xlink="http://www.w3.org/1999/xlink">
<g id="graph1" class="graph" transform="scale(1 1) rotate(0) translate(4 258)">
<title>train.cpp</title>
<polygon fill="white" stroke="white" points="-4,5 -4,-258 317,-258 317,5 -4,5"/>
<!-- Node1 -->
<g id="node1" class="node"><title>Node1</title>
<polygon fill="#bfbfbf" stroke="black" points="55,-232.5 55,-253.5 109,-253.5 109,-232.5 55,-232.5"/>
<text text-anchor="middle" x="82" y="-240.5" font-family="Helvetica,sans-Serif" font-size="10.00">train.cpp</text>
</g>
<!-- Node2 -->
<g id="node3" class="node"><title>Node2</title>
<polygon fill="white" stroke="#bfbfbf" points="0,-174.5 0,-195.5 54,-195.5 54,-174.5 0,-174.5"/>
<text text-anchor="middle" x="27" y="-182.5" font-family="Helvetica,sans-Serif" font-size="10.00">iostream</text>
</g>
<!-- Node1&#45;&gt;Node2 -->
<g id="edge2" class="edge"><title>Node1&#45;&gt;Node2</title>
<path fill="none" stroke="midnightblue" d="M71.9122,-232.362C64.1592,-224.186 53.2696,-212.702 44.1549,-203.091"/>
<polygon fill="midnightblue" stroke="midnightblue" points="46.4445,-200.419 37.0239,-195.571 41.3651,-205.235 46.4445,-200.419"/>
</g>
<!-- Node3 -->
<g id="node5" class="node"><title>Node3</title>
<polygon fill="white" stroke="#bfbfbf" points="61.5,-0.5 61.5,-21.5 102.5,-21.5 102.5,-0.5 61.5,-0.5"/>
<text text-anchor="middle" x="82" y="-8.5" font-family="Helvetica,sans-Serif" font-size="10.00">string</text>
</g>
<!-- Node1&#45;&gt;Node3 -->
<g id="edge4" class="edge"><title>Node1&#45;&gt;Node3</title>
<path fill="none" stroke="midnightblue" d="M82,-232.429C82,-196.648 82,-79.6628 82,-31.7481"/>
<polygon fill="midnightblue" stroke="midnightblue" points="85.5001,-31.6335 82,-21.6335 78.5001,-31.6335 85.5001,-31.6335"/>
</g>
<!-- Node4 -->
<g id="node7" class="node"><title>Node4</title>
<a xlink:href="../../dd/d4e/boost_util_8h.html" target="_top" xlink:title="header file for the Viola&#45;Jones algorithm&#39;s training routines ">
<polygon fill="white" stroke="black" points="187,-174.5 187,-195.5 251,-195.5 251,-174.5 187,-174.5"/>
<text text-anchor="middle" x="219" y="-182.5" font-family="Helvetica,sans-Serif" font-size="10.00">boostUtil.h</text>
</a>
</g>
<!-- Node1&#45;&gt;Node4 -->
<g id="edge6" class="edge"><title>Node1&#45;&gt;Node4</title>
<path fill="none" stroke="midnightblue" d="M106.81,-232.497C128.496,-223.315 160.211,-209.889 184.392,-199.652"/>
<polygon fill="midnightblue" stroke="midnightblue" points="186.068,-202.743 193.912,-195.621 183.339,-196.297 186.068,-202.743"/>
</g>
<!-- Node5 -->
<g id="node9" class="node"><title>Node5</title>
<polygon fill="white" stroke="#bfbfbf" points="268,-0.5 268,-21.5 312,-21.5 312,-0.5 268,-0.5"/>
<text text-anchor="middle" x="290" y="-8.5" font-family="Helvetica,sans-Serif" font-size="10.00">vector</text>
</g>
<!-- Node4&#45;&gt;Node5 -->
<g id="edge8" class="edge"><title>Node4&#45;&gt;Node5</title>
<path fill="none" stroke="midnightblue" d="M236.872,-174.409C249.156,-166.121 264.693,-153.431 273,-138 291.186,-104.216 292.584,-58.3072 291.56,-31.9466"/>
<polygon fill="midnightblue" stroke="midnightblue" points="295.036,-31.4235 290.993,-21.6307 288.047,-31.8078 295.036,-31.4235"/>
</g>
<!-- Node6 -->
<g id="node11" class="node"><title>Node6</title>
<a xlink:href="../../d6/de4/_train_examples_8h.html" target="_top" xlink:title="header for TrainExamples.cpp ">
<polygon fill="white" stroke="black" points="174,-116.5 174,-137.5 264,-137.5 264,-116.5 174,-116.5"/>
<text text-anchor="middle" x="219" y="-124.5" font-family="Helvetica,sans-Serif" font-size="10.00">TrainExamples.h</text>
</a>
</g>
<!-- Node4&#45;&gt;Node6 -->
<g id="edge10" class="edge"><title>Node4&#45;&gt;Node6</title>
<path fill="none" stroke="midnightblue" d="M219,-174.362C219,-166.922 219,-156.743 219,-147.728"/>
<polygon fill="midnightblue" stroke="midnightblue" points="222.5,-147.571 219,-137.571 215.5,-147.571 222.5,-147.571"/>
</g>
<!-- Node6&#45;&gt;Node5 -->
<g id="edge14" class="edge"><title>Node6&#45;&gt;Node5</title>
<path fill="none" stroke="midnightblue" d="M225.552,-116.295C237.493,-96.7861 262.954,-55.1884 278.054,-30.5177"/>
<polygon fill="midnightblue" stroke="midnightblue" points="281.228,-32.0356 283.464,-21.6792 275.258,-28.3812 281.228,-32.0356"/>
</g>
<!-- Node7 -->
<g id="node13" class="node"><title>Node7</title>
<polygon fill="white" stroke="#bfbfbf" points="177.5,-0.5 177.5,-21.5 250.5,-21.5 250.5,-0.5 177.5,-0.5"/>
<text text-anchor="middle" x="214" y="-8.5" font-family="Helvetica,sans-Serif" font-size="10.00">Eigen/Dense</text>
</g>
<!-- Node6&#45;&gt;Node7 -->
<g id="edge12" class="edge"><title>Node6&#45;&gt;Node7</title>
<path fill="none" stroke="midnightblue" d="M223.829,-116.254C229.314,-102.691 237.014,-78.6373 233,-58 231.208,-48.7869 227.612,-39.0938 224.026,-30.9193"/>
<polygon fill="midnightblue" stroke="midnightblue" points="227.185,-29.4117 219.779,-21.8357 220.844,-32.3768 227.185,-29.4117"/>
</g>
<!-- Node8 -->
<g id="node16" class="node"><title>Node8</title>
<polygon fill="white" stroke="#bfbfbf" points="120,-0.5 120,-21.5 160,-21.5 160,-0.5 120,-0.5"/>
<text text-anchor="middle" x="140" y="-8.5" font-family="Helvetica,sans-Serif" font-size="10.00">utility</text>
</g>
<!-- Node6&#45;&gt;Node8 -->
<g id="edge16" class="edge"><title>Node6&#45;&gt;Node8</title>
<path fill="none" stroke="midnightblue" d="M185.451,-116.403C168.31,-109.091 149.002,-97.4759 139,-80 130.654,-65.4168 131.753,-46.1027 134.453,-31.6184"/>
<polygon fill="midnightblue" stroke="midnightblue" points="137.917,-32.1666 136.7,-21.642 131.088,-30.6286 137.917,-32.1666"/>
</g>
<!-- Node9 -->
<g id="node18" class="node"><title>Node9</title>
<a xlink:href="../../d1/db9/common_util_8h.html" target="_top" xlink:title="header file for common image IO routines ">
<polygon fill="white" stroke="black" points="147.5,-58.5 147.5,-79.5 224.5,-79.5 224.5,-58.5 147.5,-58.5"/>
<text text-anchor="middle" x="186" y="-66.5" font-family="Helvetica,sans-Serif" font-size="10.00">commonUtil.h</text>
</a>
</g>
<!-- Node6&#45;&gt;Node9 -->
<g id="edge18" class="edge"><title>Node6&#45;&gt;Node9</title>
<path fill="none" stroke="midnightblue" d="M212.947,-116.362C208.528,-108.595 202.41,-97.8426 197.121,-88.5458"/>
<polygon fill="midnightblue" stroke="midnightblue" points="200.002,-86.5315 192.014,-79.5707 193.918,-89.9932 200.002,-86.5315"/>
</g>
<!-- Node9&#45;&gt;Node3 -->
<g id="edge22" class="edge"><title>Node9&#45;&gt;Node3</title>
<path fill="none" stroke="midnightblue" d="M166.925,-58.3619C150.945,-49.4502 127.919,-36.6087 109.873,-26.5447"/>
<polygon fill="midnightblue" stroke="midnightblue" points="111.393,-23.3846 100.954,-21.5707 107.983,-29.4982 111.393,-23.3846"/>
</g>
<!-- Node9&#45;&gt;Node5 -->
<g id="edge24" class="edge"><title>Node9&#45;&gt;Node5</title>
<path fill="none" stroke="midnightblue" d="M205.075,-58.3619C221.055,-49.4502 244.081,-36.6087 262.127,-26.5447"/>
<polygon fill="midnightblue" stroke="midnightblue" points="264.017,-29.4982 271.046,-21.5707 260.607,-23.3846 264.017,-29.4982"/>
</g>
<!-- Node9&#45;&gt;Node7 -->
<g id="edge20" class="edge"><title>Node9&#45;&gt;Node7</title>
<path fill="none" stroke="midnightblue" d="M191.136,-58.3619C194.846,-50.6766 199.967,-40.0686 204.422,-30.8399"/>
<polygon fill="midnightblue" stroke="midnightblue" points="207.701,-32.0978 208.897,-21.5707 201.397,-29.0545 207.701,-32.0978"/>
</g>
<!-- Node9&#45;&gt;Node8 -->
<g id="edge26" class="edge"><title>Node9&#45;&gt;Node8</title>
<path fill="none" stroke="midnightblue" d="M177.563,-58.3619C171.208,-50.3496 162.334,-39.1605 154.807,-29.6696"/>
<polygon fill="midnightblue" stroke="midnightblue" points="157.34,-27.2308 148.384,-21.5707 151.855,-31.5805 157.34,-27.2308"/>
</g>
</g>
</svg>
