<?xml version="1.0" encoding="UTF-8" standalone="no"?>
<!DOCTYPE svg PUBLIC "-//W3C//DTD SVG 1.1//EN"
 "http://www.w3.org/Graphics/SVG/1.1/DTD/svg11.dtd">
<!-- Generated by graphviz version 2.26.3 (20100126.1600)
 -->
<!-- Title: detectUtil.h Pages: 1 -->
<svg width="258pt" height="204pt"
 viewBox="0.00 0.00 258.00 204.00" xmlns="http://www.w3.org/2000/svg" xmlns:xlink="http://www.w3.org/1999/xlink">
<g id="graph1" class="graph" transform="scale(1 1) rotate(0) translate(4 200)">
<title>detectUtil.h</title>
<polygon fill="white" stroke="white" points="-4,5 -4,-200 255,-200 255,5 -4,5"/>
<!-- Node1 -->
<g id="node1" class="node"><title>Node1</title>
<polygon fill="#bfbfbf" stroke="black" points="109.5,-174.5 109.5,-195.5 176.5,-195.5 176.5,-174.5 109.5,-174.5"/>
<text text-anchor="middle" x="143" y="-182.5" font-family="Helvetica,sans-Serif" font-size="10.00">detectUtil.h</text>
</g>
<!-- Node2 -->
<g id="node3" class="node"><title>Node2</title>
<polygon fill="white" stroke="#bfbfbf" points="-0.5,-0.5 -0.5,-21.5 72.5,-21.5 72.5,-0.5 -0.5,-0.5"/>
<text text-anchor="middle" x="36" y="-8.5" font-family="Helvetica,sans-Serif" font-size="10.00">Eigen/Dense</text>
</g>
<!-- Node1&#45;&gt;Node2 -->
<g id="edge2" class="edge"><title>Node1&#45;&gt;Node2</title>
<path fill="none" stroke="midnightblue" d="M128.058,-174.498C105.437,-157.602 63.3061,-121.989 46,-80 39.6672,-64.635 37.2508,-45.9042 36.3715,-31.8374"/>
<polygon fill="midnightblue" stroke="midnightblue" points="39.8629,-31.5553 35.9504,-21.7094 32.8689,-31.8462 39.8629,-31.5553"/>
</g>
<!-- Node3 -->
<g id="node5" class="node"><title>Node3</title>
<polygon fill="white" stroke="#bfbfbf" points="206,-0.5 206,-21.5 250,-21.5 250,-0.5 206,-0.5"/>
<text text-anchor="middle" x="228" y="-8.5" font-family="Helvetica,sans-Serif" font-size="10.00">vector</text>
</g>
<!-- Node1&#45;&gt;Node3 -->
<g id="edge4" class="edge"><title>Node1&#45;&gt;Node3</title>
<path fill="none" stroke="midnightblue" d="M159.872,-174.485C171.99,-166.066 187.756,-153.18 197,-138 217.452,-104.417 224.42,-58.1228 226.788,-31.7034"/>
<polygon fill="midnightblue" stroke="midnightblue" points="230.281,-31.9287 227.547,-21.6927 223.301,-31.3994 230.281,-31.9287"/>
</g>
<!-- Node4 -->
<g id="node7" class="node"><title>Node4</title>
<a xlink:href="../../d6/de4/_train_examples_8h.html" target="_top" xlink:title="header for TrainExamples.cpp ">
<polygon fill="white" stroke="black" points="98,-116.5 98,-137.5 188,-137.5 188,-116.5 98,-116.5"/>
<text text-anchor="middle" x="143" y="-124.5" font-family="Helvetica,sans-Serif" font-size="10.00">TrainExamples.h</text>
</a>
</g>
<!-- Node1&#45;&gt;Node4 -->
<g id="edge6" class="edge"><title>Node1&#45;&gt;Node4</title>
<path fill="none" stroke="midnightblue" d="M143,-174.362C143,-166.922 143,-156.743 143,-147.728"/>
<polygon fill="midnightblue" stroke="midnightblue" points="146.5,-147.571 143,-137.571 139.5,-147.571 146.5,-147.571"/>
</g>
<!-- Node4&#45;&gt;Node2 -->
<g id="edge8" class="edge"><title>Node4&#45;&gt;Node2</title>
<path fill="none" stroke="midnightblue" d="M115.356,-116.34C98.2717,-108.529 77.0094,-96.4214 63,-80 51.176,-66.1403 44.1711,-46.4978 40.272,-31.7126"/>
<polygon fill="midnightblue" stroke="midnightblue" points="43.6715,-30.8792 37.9573,-21.9574 36.8606,-32.4953 43.6715,-30.8792"/>
</g>
<!-- Node4&#45;&gt;Node3 -->
<g id="edge10" class="edge"><title>Node4&#45;&gt;Node3</title>
<path fill="none" stroke="midnightblue" d="M150.844,-116.295C165.266,-96.6135 196.161,-54.4504 214.175,-29.8668"/>
<polygon fill="midnightblue" stroke="midnightblue" points="217.087,-31.8142 220.175,-21.6792 211.441,-27.6768 217.087,-31.8142"/>
</g>
<!-- Node5 -->
<g id="node11" class="node"><title>Node5</title>
<polygon fill="white" stroke="#bfbfbf" points="148,-0.5 148,-21.5 188,-21.5 188,-0.5 148,-0.5"/>
<text text-anchor="middle" x="168" y="-8.5" font-family="Helvetica,sans-Serif" font-size="10.00">utility</text>
</g>
<!-- Node4&#45;&gt;Node5 -->
<g id="edge12" class="edge"><title>Node4&#45;&gt;Node5</title>
<path fill="none" stroke="midnightblue" d="M146.632,-116.28C149.731,-106.822 154.128,-92.6186 157,-80 160.618,-64.1062 163.468,-45.8868 165.36,-32.1622"/>
<polygon fill="midnightblue" stroke="midnightblue" points="168.884,-32.212 166.72,-21.8405 161.944,-31.2977 168.884,-32.212"/>
</g>
<!-- Node6 -->
<g id="node13" class="node"><title>Node6</title>
<a xlink:href="../../d1/db9/common_util_8h.html" target="_top" xlink:title="header file for common image IO routines ">
<polygon fill="white" stroke="black" points="71.5,-58.5 71.5,-79.5 148.5,-79.5 148.5,-58.5 71.5,-58.5"/>
<text text-anchor="middle" x="110" y="-66.5" font-family="Helvetica,sans-Serif" font-size="10.00">commonUtil.h</text>
</a>
</g>
<!-- Node4&#45;&gt;Node6 -->
<g id="edge14" class="edge"><title>Node4&#45;&gt;Node6</title>
<path fill="none" stroke="midnightblue" d="M136.947,-116.362C132.528,-108.595 126.41,-97.8426 121.121,-88.5458"/>
<polygon fill="midnightblue" stroke="midnightblue" points="124.002,-86.5315 116.014,-79.5707 117.918,-89.9932 124.002,-86.5315"/>
</g>
<!-- Node6&#45;&gt;Node2 -->
<g id="edge16" class="edge"><title>Node6&#45;&gt;Node2</title>
<path fill="none" stroke="midnightblue" d="M96.4273,-58.3619C85.5788,-49.859 70.1657,-37.7785 57.6215,-27.9466"/>
<polygon fill="midnightblue" stroke="midnightblue" points="59.5164,-24.9848 49.4867,-21.5707 55.1982,-30.4942 59.5164,-24.9848"/>
</g>
<!-- Node6&#45;&gt;Node3 -->
<g id="edge20" class="edge"><title>Node6&#45;&gt;Node3</title>
<path fill="none" stroke="midnightblue" d="M131.369,-58.4966C149.799,-49.4378 176.637,-36.2462 197.355,-26.0628"/>
<polygon fill="midnightblue" stroke="midnightblue" points="198.961,-29.1735 206.391,-21.6212 195.873,-22.8914 198.961,-29.1735"/>
</g>
<!-- Node6&#45;&gt;Node5 -->
<g id="edge22" class="edge"><title>Node6&#45;&gt;Node5</title>
<path fill="none" stroke="midnightblue" d="M120.638,-58.3619C128.896,-50.1043 140.528,-38.4725 150.197,-28.8029"/>
<polygon fill="midnightblue" stroke="midnightblue" points="152.833,-31.1166 157.429,-21.5707 147.883,-26.1669 152.833,-31.1166"/>
</g>
<!-- Node7 -->
<g id="node16" class="node"><title>Node7</title>
<polygon fill="white" stroke="#bfbfbf" points="89.5,-0.5 89.5,-21.5 130.5,-21.5 130.5,-0.5 89.5,-0.5"/>
<text text-anchor="middle" x="110" y="-8.5" font-family="Helvetica,sans-Serif" font-size="10.00">string</text>
</g>
<!-- Node6&#45;&gt;Node7 -->
<g id="edge18" class="edge"><title>Node6&#45;&gt;Node7</title>
<path fill="none" stroke="midnightblue" d="M110,-58.3619C110,-50.9219 110,-40.7427 110,-31.7276"/>
<polygon fill="midnightblue" stroke="midnightblue" points="113.5,-31.5706 110,-21.5707 106.5,-31.5707 113.5,-31.5706"/>
</g>
</g>
</svg>
