<?xml version="1.0" encoding="UTF-8" standalone="no"?>
<!DOCTYPE svg PUBLIC "-//W3C//DTD SVG 1.1//EN"
 "http://www.w3.org/Graphics/SVG/1.1/DTD/svg11.dtd">
<!-- Generated by graphviz version 2.26.3 (20100126.1600)
 -->
<!-- Title: detectUtil.h Pages: 1 -->
<svg width="282pt" height="88pt"
 viewBox="0.00 0.00 282.00 88.00" xmlns="http://www.w3.org/2000/svg" xmlns:xlink="http://www.w3.org/1999/xlink">
<g id="graph1" class="graph" transform="scale(1 1) rotate(0) translate(4 84)">
<title>detectUtil.h</title>
<polygon fill="white" stroke="white" points="-4,5 -4,-84 279,-84 279,5 -4,5"/>
<!-- Node1 -->
<g id="node1" class="node"><title>Node1</title>
<polygon fill="#bfbfbf" stroke="black" points="84.5,-58.5 84.5,-79.5 151.5,-79.5 151.5,-58.5 84.5,-58.5"/>
<text text-anchor="middle" x="118" y="-66.5" font-family="Helvetica,sans-Serif" font-size="10.00">detectUtil.h</text>
</g>
<!-- Node2 -->
<g id="node3" class="node"><title>Node2</title>
<a xlink:href="../../d9/d6b/detect_8cpp.html" target="_top" xlink:title="command line for the viola jones face detector ">
<polygon fill="white" stroke="black" points="0,-0.5 0,-21.5 62,-21.5 62,-0.5 0,-0.5"/>
<text text-anchor="middle" x="31" y="-8.5" font-family="Helvetica,sans-Serif" font-size="10.00">detect.cpp</text>
</a>
</g>
<!-- Node1&#45;&gt;Node2 -->
<g id="edge2" class="edge"><title>Node1&#45;&gt;Node2</title>
<path fill="none" stroke="midnightblue" d="M93.3111,-52.5407C78.396,-42.5973 59.8265,-30.2177 46.856,-21.5707"/>
<polygon fill="midnightblue" stroke="midnightblue" points="91.7809,-55.727 102.043,-58.3619 95.6638,-49.9027 91.7809,-55.727"/>
</g>
<!-- Node3 -->
<g id="node5" class="node"><title>Node3</title>
<a xlink:href="../../d5/dc3/detect_util_8cpp.html" target="_top" xlink:title="common routines for face detection ">
<polygon fill="white" stroke="black" points="79.5,-0.5 79.5,-21.5 156.5,-21.5 156.5,-0.5 79.5,-0.5"/>
<text text-anchor="middle" x="118" y="-8.5" font-family="Helvetica,sans-Serif" font-size="10.00">detectUtil.cpp</text>
</a>
</g>
<!-- Node1&#45;&gt;Node3 -->
<g id="edge4" class="edge"><title>Node1&#45;&gt;Node3</title>
<path fill="none" stroke="midnightblue" d="M118,-48.1906C118,-39.1684 118,-28.9941 118,-21.5707"/>
<polygon fill="midnightblue" stroke="midnightblue" points="114.5,-48.3619 118,-58.3619 121.5,-48.3619 114.5,-48.3619"/>
</g>
<!-- Node4 -->
<g id="node7" class="node"><title>Node4</title>
<a xlink:href="../../d6/d73/_train_examples_8cpp.html" target="_top" xlink:title="Training Utils implemented as an cpp object. ">
<polygon fill="white" stroke="black" points="173.5,-0.5 173.5,-21.5 274.5,-21.5 274.5,-0.5 173.5,-0.5"/>
<text text-anchor="middle" x="224" y="-8.5" font-family="Helvetica,sans-Serif" font-size="10.00">TrainExamples.cpp</text>
</a>
</g>
<!-- Node1&#45;&gt;Node4 -->
<g id="edge6" class="edge"><title>Node1&#45;&gt;Node4</title>
<path fill="none" stroke="midnightblue" d="M146.296,-53.5175C164.752,-43.4189 188.356,-30.5032 204.681,-21.5707"/>
<polygon fill="midnightblue" stroke="midnightblue" points="144.535,-50.4913 137.442,-58.3619 147.895,-56.6322 144.535,-50.4913"/>
</g>
</g>
</svg>
