<?xml version="1.0" encoding="UTF-8" standalone="no"?>
<!DOCTYPE svg PUBLIC "-//W3C//DTD SVG 1.1//EN"
 "http://www.w3.org/Graphics/SVG/1.1/DTD/svg11.dtd">
<!-- Generated by graphviz version 2.26.3 (20100126.1600)
 -->
<!-- Title: commonUtil.h Pages: 1 -->
<svg width="471pt" height="204pt"
 viewBox="0.00 0.00 471.00 204.00" xmlns="http://www.w3.org/2000/svg" xmlns:xlink="http://www.w3.org/1999/xlink">
<g id="graph1" class="graph" transform="scale(1 1) rotate(0) translate(4 200)">
<title>commonUtil.h</title>
<polygon fill="white" stroke="white" points="-4,5 -4,-200 468,-200 468,5 -4,5"/>
<!-- Node1 -->
<g id="node1" class="node"><title>Node1</title>
<polygon fill="#bfbfbf" stroke="black" points="186.5,-174.5 186.5,-195.5 263.5,-195.5 263.5,-174.5 186.5,-174.5"/>
<text text-anchor="middle" x="225" y="-182.5" font-family="Helvetica,sans-Serif" font-size="10.00">commonUtil.h</text>
</g>
<!-- Node2 -->
<g id="node3" class="node"><title>Node2</title>
<a xlink:href="../../d6/de4/_train_examples_8h.html" target="_top" xlink:title="header for TrainExamples.cpp ">
<polygon fill="white" stroke="black" points="107,-116.5 107,-137.5 197,-137.5 197,-116.5 107,-116.5"/>
<text text-anchor="middle" x="152" y="-124.5" font-family="Helvetica,sans-Serif" font-size="10.00">TrainExamples.h</text>
</a>
</g>
<!-- Node1&#45;&gt;Node2 -->
<g id="edge2" class="edge"><title>Node1&#45;&gt;Node2</title>
<path fill="none" stroke="midnightblue" d="M203.572,-167.975C191.183,-158.132 175.982,-146.055 165.304,-137.571"/>
<polygon fill="midnightblue" stroke="midnightblue" points="201.604,-170.881 211.611,-174.362 205.958,-165.401 201.604,-170.881"/>
</g>
<!-- Node3 -->
<g id="node5" class="node"><title>Node3</title>
<a xlink:href="../../dd/ddd/boost_util_8cpp.html" target="_top" xlink:title="main training routines for the Viola&#45;Jones algorithm ">
<polygon fill="white" stroke="black" points="0,-0.5 0,-21.5 74,-21.5 74,-0.5 0,-0.5"/>
<text text-anchor="middle" x="37" y="-8.5" font-family="Helvetica,sans-Serif" font-size="10.00">boostUtil.cpp</text>
</a>
</g>
<!-- Node1&#45;&gt;Node3 -->
<g id="edge22" class="edge"><title>Node1&#45;&gt;Node3</title>
<path fill="none" stroke="midnightblue" d="M176.462,-175.226C150.978,-168.197 120.469,-156.588 98,-138 60.1178,-106.661 44.1178,-46.2424 38.9914,-21.7277"/>
<polygon fill="midnightblue" stroke="midnightblue" points="175.755,-178.659 186.315,-177.789 177.518,-171.884 175.755,-178.659"/>
</g>
<!-- Node8 -->
<g id="node16" class="node"><title>Node8</title>
<a xlink:href="../../d5/dc3/detect_util_8cpp.html" target="_top" xlink:title="common routines for face detection ">
<polygon fill="white" stroke="black" points="361.5,-0.5 361.5,-21.5 438.5,-21.5 438.5,-0.5 361.5,-0.5"/>
<text text-anchor="middle" x="400" y="-8.5" font-family="Helvetica,sans-Serif" font-size="10.00">detectUtil.cpp</text>
</a>
</g>
<!-- Node1&#45;&gt;Node8 -->
<g id="edge26" class="edge"><title>Node1&#45;&gt;Node8</title>
<path fill="none" stroke="midnightblue" d="M243.098,-167.005C279.301,-131.01 359.674,-51.0958 389.009,-21.9277"/>
<polygon fill="midnightblue" stroke="midnightblue" points="240.307,-164.845 235.684,-174.377 245.243,-169.809 240.307,-164.845"/>
</g>
<!-- Node9 -->
<g id="node18" class="node"><title>Node9</title>
<a xlink:href="../../d6/d73/_train_examples_8cpp.html" target="_top" xlink:title="Training Utils implemented as an cpp object. ">
<polygon fill="white" stroke="black" points="163.5,-0.5 163.5,-21.5 264.5,-21.5 264.5,-0.5 163.5,-0.5"/>
<text text-anchor="middle" x="214" y="-8.5" font-family="Helvetica,sans-Serif" font-size="10.00">TrainExamples.cpp</text>
</a>
</g>
<!-- Node1&#45;&gt;Node9 -->
<g id="edge28" class="edge"><title>Node1&#45;&gt;Node9</title>
<path fill="none" stroke="midnightblue" d="M223.685,-164.2C221.334,-127.013 216.488,-50.3605 214.691,-21.9277"/>
<polygon fill="midnightblue" stroke="midnightblue" points="220.204,-164.618 224.328,-174.377 227.19,-164.177 220.204,-164.618"/>
</g>
<!-- Node10 -->
<g id="node22" class="node"><title>Node10</title>
<a xlink:href="../../dd/d4b/common_util_8cpp.html" target="_top" xlink:title="common routines for image IO ">
<polygon fill="white" stroke="black" points="375,-116.5 375,-137.5 463,-137.5 463,-116.5 375,-116.5"/>
<text text-anchor="middle" x="419" y="-124.5" font-family="Helvetica,sans-Serif" font-size="10.00">commonUtil.cpp</text>
</a>
</g>
<!-- Node1&#45;&gt;Node10 -->
<g id="edge24" class="edge"><title>Node1&#45;&gt;Node10</title>
<path fill="none" stroke="midnightblue" d="M270,-171.546C304.655,-161.186 351.88,-147.067 383.802,-137.523"/>
<polygon fill="midnightblue" stroke="midnightblue" points="268.71,-168.279 260.132,-174.497 270.715,-174.985 268.71,-168.279"/>
</g>
<!-- Node2&#45;&gt;Node3 -->
<g id="edge4" class="edge"><title>Node2&#45;&gt;Node3</title>
<path fill="none" stroke="midnightblue" d="M125.199,-110.881C112.538,-102.553 97.6782,-91.6935 86,-80 67.7271,-61.7031 51.4193,-35.9512 43.0114,-21.643"/>
<polygon fill="midnightblue" stroke="midnightblue" points="123.642,-114.039 133.954,-116.473 127.411,-108.14 123.642,-114.039"/>
</g>
<!-- Node4 -->
<g id="node7" class="node"><title>Node4</title>
<a xlink:href="../../dd/d4e/boost_util_8h.html" target="_top" xlink:title="header file for the Viola&#45;Jones algorithm&#39;s training routines ">
<polygon fill="white" stroke="black" points="95,-58.5 95,-79.5 159,-79.5 159,-58.5 95,-58.5"/>
<text text-anchor="middle" x="127" y="-66.5" font-family="Helvetica,sans-Serif" font-size="10.00">boostUtil.h</text>
</a>
</g>
<!-- Node2&#45;&gt;Node4 -->
<g id="edge6" class="edge"><title>Node2&#45;&gt;Node4</title>
<path fill="none" stroke="midnightblue" d="M143.413,-107.079C139.432,-97.8422 134.862,-87.2388 131.556,-79.5707"/>
<polygon fill="midnightblue" stroke="midnightblue" points="140.242,-108.564 147.415,-116.362 146.67,-105.793 140.242,-108.564"/>
</g>
<!-- Node6 -->
<g id="node12" class="node"><title>Node6</title>
<a xlink:href="../../d0/d4c/detect_util_8h.html" target="_top" xlink:title="header file for face detection routines ">
<polygon fill="white" stroke="black" points="252.5,-58.5 252.5,-79.5 319.5,-79.5 319.5,-58.5 252.5,-58.5"/>
<text text-anchor="middle" x="286" y="-66.5" font-family="Helvetica,sans-Serif" font-size="10.00">detectUtil.h</text>
</a>
</g>
<!-- Node2&#45;&gt;Node6 -->
<g id="edge12" class="edge"><title>Node2&#45;&gt;Node6</title>
<path fill="none" stroke="midnightblue" d="M185.548,-112.479C209.136,-102.269 240.166,-88.8386 261.461,-79.6212"/>
<polygon fill="midnightblue" stroke="midnightblue" points="184.053,-109.312 176.266,-116.497 186.834,-115.736 184.053,-109.312"/>
</g>
<!-- Node2&#45;&gt;Node9 -->
<g id="edge20" class="edge"><title>Node2&#45;&gt;Node9</title>
<path fill="none" stroke="midnightblue" d="M162.449,-107.45C175.643,-82.7639 197.875,-41.1685 208.292,-21.6792"/>
<polygon fill="midnightblue" stroke="midnightblue" points="159.349,-105.826 157.722,-116.295 165.522,-109.125 159.349,-105.826"/>
</g>
<!-- Node4&#45;&gt;Node3 -->
<g id="edge8" class="edge"><title>Node4&#45;&gt;Node3</title>
<path fill="none" stroke="midnightblue" d="M101.895,-52.8215C86.3933,-42.8312 66.9471,-30.2993 53.4027,-21.5707"/>
<polygon fill="midnightblue" stroke="midnightblue" points="100.191,-55.8869 110.493,-58.3619 103.983,-50.0028 100.191,-55.8869"/>
</g>
<!-- Node5 -->
<g id="node10" class="node"><title>Node5</title>
<a xlink:href="../../de/dc7/train_8cpp.html" target="_top" xlink:title="command line for training a viola jones cascade detector ">
<polygon fill="white" stroke="black" points="92,-0.5 92,-21.5 146,-21.5 146,-0.5 92,-0.5"/>
<text text-anchor="middle" x="119" y="-8.5" font-family="Helvetica,sans-Serif" font-size="10.00">train.cpp</text>
</a>
</g>
<!-- Node4&#45;&gt;Node5 -->
<g id="edge10" class="edge"><title>Node4&#45;&gt;Node5</title>
<path fill="none" stroke="midnightblue" d="M124.13,-48.1906C122.885,-39.1684 121.482,-28.9941 120.458,-21.5707"/>
<polygon fill="midnightblue" stroke="midnightblue" points="120.699,-48.934 125.533,-58.3619 127.633,-47.9774 120.699,-48.934"/>
</g>
<!-- Node7 -->
<g id="node14" class="node"><title>Node7</title>
<a xlink:href="../../d9/d6b/detect_8cpp.html" target="_top" xlink:title="command line for the viola jones face detector ">
<polygon fill="white" stroke="black" points="282,-0.5 282,-21.5 344,-21.5 344,-0.5 282,-0.5"/>
<text text-anchor="middle" x="313" y="-8.5" font-family="Helvetica,sans-Serif" font-size="10.00">detect.cpp</text>
</a>
</g>
<!-- Node6&#45;&gt;Node7 -->
<g id="edge14" class="edge"><title>Node6&#45;&gt;Node7</title>
<path fill="none" stroke="midnightblue" d="M295.274,-49.079C299.573,-39.8422 304.51,-29.2388 308.079,-21.5707"/>
<polygon fill="midnightblue" stroke="midnightblue" points="292,-47.819 290.952,-58.3619 298.346,-50.7732 292,-47.819"/>
</g>
<!-- Node6&#45;&gt;Node8 -->
<g id="edge16" class="edge"><title>Node6&#45;&gt;Node8</title>
<path fill="none" stroke="midnightblue" d="M315.617,-53.9319C335.544,-43.7932 361.329,-30.6748 379.124,-21.6212"/>
<polygon fill="midnightblue" stroke="midnightblue" points="313.97,-50.8425 306.645,-58.4966 317.144,-57.0815 313.97,-50.8425"/>
</g>
<!-- Node6&#45;&gt;Node9 -->
<g id="edge18" class="edge"><title>Node6&#45;&gt;Node9</title>
<path fill="none" stroke="midnightblue" d="M264.866,-51.9753C252.646,-42.1315 237.654,-30.0545 227.122,-21.5707"/>
<polygon fill="midnightblue" stroke="midnightblue" points="262.811,-54.8142 272.794,-58.3619 267.202,-49.3629 262.811,-54.8142"/>
</g>
</g>
</svg>
