<?xml version="1.0" encoding="UTF-8" standalone="no"?>
<!DOCTYPE svg PUBLIC "-//W3C//DTD SVG 1.1//EN"
 "http://www.w3.org/Graphics/SVG/1.1/DTD/svg11.dtd">
<!-- Generated by graphviz version 2.26.3 (20100126.1600)
 -->
<!-- Title: TrainExamples.h Pages: 1 -->
<svg width="258pt" height="146pt"
 viewBox="0.00 0.00 258.00 146.00" xmlns="http://www.w3.org/2000/svg" xmlns:xlink="http://www.w3.org/1999/xlink">
<g id="graph1" class="graph" transform="scale(1 1) rotate(0) translate(4 142)">
<title>TrainExamples.h</title>
<polygon fill="white" stroke="white" points="-4,5 -4,-142 255,-142 255,5 -4,5"/>
<!-- Node1 -->
<g id="node1" class="node"><title>Node1</title>
<polygon fill="#bfbfbf" stroke="black" points="86,-116.5 86,-137.5 176,-137.5 176,-116.5 86,-116.5"/>
<text text-anchor="middle" x="131" y="-124.5" font-family="Helvetica,sans-Serif" font-size="10.00">TrainExamples.h</text>
</g>
<!-- Node2 -->
<g id="node3" class="node"><title>Node2</title>
<polygon fill="white" stroke="#bfbfbf" points="-0.5,-0.5 -0.5,-21.5 72.5,-21.5 72.5,-0.5 -0.5,-0.5"/>
<text text-anchor="middle" x="36" y="-8.5" font-family="Helvetica,sans-Serif" font-size="10.00">Eigen/Dense</text>
</g>
<!-- Node1&#45;&gt;Node2 -->
<g id="edge2" class="edge"><title>Node1&#45;&gt;Node2</title>
<path fill="none" stroke="midnightblue" d="M122.233,-116.295C106.044,-96.5271 71.2812,-54.0801 51.1872,-29.5443"/>
<polygon fill="midnightblue" stroke="midnightblue" points="53.7898,-27.1982 44.7459,-21.6792 48.3741,-31.6334 53.7898,-27.1982"/>
</g>
<!-- Node3 -->
<g id="node5" class="node"><title>Node3</title>
<polygon fill="white" stroke="#bfbfbf" points="90,-0.5 90,-21.5 134,-21.5 134,-0.5 90,-0.5"/>
<text text-anchor="middle" x="112" y="-8.5" font-family="Helvetica,sans-Serif" font-size="10.00">vector</text>
</g>
<!-- Node1&#45;&gt;Node3 -->
<g id="edge4" class="edge"><title>Node1&#45;&gt;Node3</title>
<path fill="none" stroke="midnightblue" d="M127.099,-116.335C123.828,-106.913 119.329,-92.7301 117,-80 114.096,-64.1242 112.863,-45.9038 112.347,-32.1744"/>
<polygon fill="midnightblue" stroke="midnightblue" points="115.837,-31.7473 112.061,-21.848 108.839,-31.941 115.837,-31.7473"/>
</g>
<!-- Node4 -->
<g id="node7" class="node"><title>Node4</title>
<polygon fill="white" stroke="#bfbfbf" points="210,-0.5 210,-21.5 250,-21.5 250,-0.5 210,-0.5"/>
<text text-anchor="middle" x="230" y="-8.5" font-family="Helvetica,sans-Serif" font-size="10.00">utility</text>
</g>
<!-- Node1&#45;&gt;Node4 -->
<g id="edge6" class="edge"><title>Node1&#45;&gt;Node4</title>
<path fill="none" stroke="midnightblue" d="M160.019,-116.478C177.196,-108.842 198.062,-96.8736 211,-80 221.604,-66.1714 226.292,-46.7851 228.363,-32.0812"/>
<polygon fill="midnightblue" stroke="midnightblue" points="231.866,-32.2446 229.492,-21.9194 224.909,-31.4718 231.866,-32.2446"/>
</g>
<!-- Node5 -->
<g id="node9" class="node"><title>Node5</title>
<a xlink:href="../../d1/db9/common_util_8h.html" target="_top" xlink:title="header file for common image IO routines ">
<polygon fill="white" stroke="black" points="125.5,-58.5 125.5,-79.5 202.5,-79.5 202.5,-58.5 125.5,-58.5"/>
<text text-anchor="middle" x="164" y="-66.5" font-family="Helvetica,sans-Serif" font-size="10.00">commonUtil.h</text>
</a>
</g>
<!-- Node1&#45;&gt;Node5 -->
<g id="edge8" class="edge"><title>Node1&#45;&gt;Node5</title>
<path fill="none" stroke="midnightblue" d="M137.053,-116.362C141.472,-108.595 147.59,-97.8426 152.879,-88.5458"/>
<polygon fill="midnightblue" stroke="midnightblue" points="156.082,-89.9932 157.986,-79.5707 149.998,-86.5315 156.082,-89.9932"/>
</g>
<!-- Node5&#45;&gt;Node2 -->
<g id="edge10" class="edge"><title>Node5&#45;&gt;Node2</title>
<path fill="none" stroke="midnightblue" d="M140.82,-58.4966C120.648,-49.3562 91.1904,-36.0082 68.6362,-25.7883"/>
<polygon fill="midnightblue" stroke="midnightblue" points="69.9931,-22.5606 59.4399,-21.6212 67.1039,-28.9366 69.9931,-22.5606"/>
</g>
<!-- Node5&#45;&gt;Node3 -->
<g id="edge14" class="edge"><title>Node5&#45;&gt;Node3</title>
<path fill="none" stroke="midnightblue" d="M154.462,-58.3619C147.132,-50.1861 136.837,-38.7025 128.219,-29.0907"/>
<polygon fill="midnightblue" stroke="midnightblue" points="130.759,-26.68 121.477,-21.5707 125.547,-31.3528 130.759,-26.68"/>
</g>
<!-- Node5&#45;&gt;Node4 -->
<g id="edge16" class="edge"><title>Node5&#45;&gt;Node4</title>
<path fill="none" stroke="midnightblue" d="M176.105,-58.3619C185.688,-49.9408 199.264,-38.0105 210.393,-28.2308"/>
<polygon fill="midnightblue" stroke="midnightblue" points="212.77,-30.8009 217.971,-21.5707 208.149,-25.5427 212.77,-30.8009"/>
</g>
<!-- Node6 -->
<g id="node12" class="node"><title>Node6</title>
<polygon fill="white" stroke="#bfbfbf" points="151.5,-0.5 151.5,-21.5 192.5,-21.5 192.5,-0.5 151.5,-0.5"/>
<text text-anchor="middle" x="172" y="-8.5" font-family="Helvetica,sans-Serif" font-size="10.00">string</text>
</g>
<!-- Node5&#45;&gt;Node6 -->
<g id="edge12" class="edge"><title>Node5&#45;&gt;Node6</title>
<path fill="none" stroke="midnightblue" d="M165.467,-58.3619C166.494,-50.9219 167.898,-40.7427 169.141,-31.7276"/>
<polygon fill="midnightblue" stroke="midnightblue" points="172.643,-31.9551 170.542,-21.5707 165.708,-30.9986 172.643,-31.9551"/>
</g>
</g>
</svg>
